<svg xmlns="http://www.w3.org/2000/svg" width="696.84" height="600.00" viewBox="-588.33 -689.48 1642.36 1414.12">
    <style>.nad-branch-edges .nad-edge-path, .nad-3wt-edges .nad-edge-path {stroke: var(--nad-vl-color, lightgrey); stroke-width: 5; fill: none}
.nad-branch-edges .nad-winding, .nad-3wt-nodes .nad-winding {stroke: var(--nad-vl-color, lightgrey); stroke-width: 5; fill: none}
.nad-text-edges {stroke: black; stroke-width: 3; stroke-dasharray: 6,7; fill: none}
.nad-disconnected.nad-edge-path {stroke-dasharray: 10,10}
.nad-injections .nad-disconnected .nad-edge-path, .nad-injections .nad-disconnected circle {stroke: lightgrey}
.nad-injections .nad-edge-path {stroke: var(--nad-vl-color, lightgrey); stroke-width: 3; fill: none}
.nad-injections circle {stroke: var(--nad-vl-color, lightgrey); stroke-width: 3; fill: none}
.nad-vl-nodes .nad-busnode {fill: var(--nad-vl-color, lightgrey)}
.nad-vl-nodes circle.nad-unknown-busnode {stroke: var(--nad-vl-color, #808080); stroke-width: 5; stroke-dasharray: 5,5; fill: none}
.nad-hvdc-edge polyline.nad-hvdc {stroke: grey; stroke-width: 40}
.nad-branch-edges .nad-tie-line-edge .nad-edge-path {stroke-width: 7}
.nad-pst-arrow {stroke: #6a6a6a; stroke-width: 4; stroke-linecap: round; fill: none}
.nad-active {fill: #546e7a}
.nad-reactive {fill: #0277bd}
.nad-current {fill: #bd4802}
.nad-text-background {flood-color: #90a4aeaa}
.nad-text-nodes {font: 25px serif; fill: black; dominant-baseline: central}
foreignObject.nad-text-nodes {overflow: visible; color: black}
.nad-label-box {background-color: #6c6c6c20; width: max-content; padding: 10px; border-radius: 10px;}
.nad-legend-square {display: inline-block; margin-right: 10px; width: 20px; height: 20px; background: var(--nad-vl-color, black);}
.nad-edge-infos text, .nad-edge-label text {font: 20px serif; dominant-baseline:middle; stroke: #FFFFFFAA; stroke-width: 10; stroke-linejoin:round; paint-order: stroke}
.nad-disconnected {--nad-vl-color: #808080}
:is(.nad-branch-edges, .nad-3wt-edges, .nad-3wt-nodes) .nad-vl0to30 {--nad-vl-color: #afb42b}
.nad-vl0to30 .nad-bus-0 {--nad-vl-color: #827717}
.nad-vl0to30 .nad-bus-1 {--nad-vl-color: #d4e157}
.nad-vl0to30 .nad-bus-2 {--nad-vl-color: #e6ee9c}
.nad-vl0to30 .nad-bus-3 {--nad-vl-color: #c0ca33}
.nad-vl0to30 .nad-bus-4 {--nad-vl-color: #f0fc83}
.nad-vl0to30 .nad-bus-5 {--nad-vl-color: #9e9d24}
.nad-vl0to30 .nad-bus-6 {--nad-vl-color: #cddc39}
.nad-vl0to30 .nad-bus-7 {--nad-vl-color: #dce775}
.nad-vl0to30 .nad-bus-8 {--nad-vl-color: #ddfc88}
:is(.nad-branch-edges, .nad-3wt-edges, .nad-3wt-nodes) .nad-vl30to50 {--nad-vl-color: #ef9a9a}
.nad-vl30to50 .nad-bus-0 {--nad-vl-color: #c2185b}
.nad-vl30to50 .nad-bus-1 {--nad-vl-color: #f06292}
.nad-vl30to50 .nad-bus-2 {--nad-vl-color: #d81b60}
.nad-vl30to50 .nad-bus-3 {--nad-vl-color: #ec407a}
.nad-vl30to50 .nad-bus-4 {--nad-vl-color: #880e4f}
.nad-vl30to50 .nad-bus-5 {--nad-vl-color: #ad1457}
.nad-vl30to50 .nad-bus-6 {--nad-vl-color: #e91e63}
.nad-vl30to50 .nad-bus-7 {--nad-vl-color: #f48fb1}
.nad-vl30to50 .nad-bus-8 {--nad-vl-color: #f8bbd0}
:is(.nad-branch-edges, .nad-3wt-edges, .nad-3wt-nodes) .nad-vl50to70 {--nad-vl-color: #9c27b0}
.nad-vl50to70 .nad-bus-0 {--nad-vl-color: #7b1fa2}
.nad-vl50to70 .nad-bus-1 {--nad-vl-color: #ba68c8}
.nad-vl50to70 .nad-bus-2 {--nad-vl-color: #512da8}
.nad-vl50to70 .nad-bus-3 {--nad-vl-color: #ab47bc}
.nad-vl50to70 .nad-bus-4 {--nad-vl-color: #e1bee7}
.nad-vl50to70 .nad-bus-5 {--nad-vl-color: #6a1b9a}
.nad-vl50to70 .nad-bus-6 {--nad-vl-color: #4a148c}
.nad-vl50to70 .nad-bus-7 {--nad-vl-color: #ce93d8}
.nad-vl50to70 .nad-bus-8 {--nad-vl-color: #9575cd}
:is(.nad-branch-edges, .nad-3wt-edges, .nad-3wt-nodes) .nad-vl70to120 {--nad-vl-color: #e65100}
.nad-vl70to120 .nad-bus-0 {--nad-vl-color: #fb8c00}
.nad-vl70to120 .nad-bus-1 {--nad-vl-color: #ffb74d}
.nad-vl70to120 .nad-bus-2 {--nad-vl-color: #f57c00}
.nad-vl70to120 .nad-bus-3 {--nad-vl-color: #ffa726}
.nad-vl70to120 .nad-bus-4 {--nad-vl-color: #ffe0b2}
.nad-vl70to120 .nad-bus-5 {--nad-vl-color: #ef6c00}
.nad-vl70to120 .nad-bus-6 {--nad-vl-color: #ff9800}
.nad-vl70to120 .nad-bus-7 {--nad-vl-color: #ffcc80}
.nad-vl70to120 .nad-bus-8 {--nad-vl-color: #fff3e0}
:is(.nad-branch-edges, .nad-3wt-edges, .nad-3wt-nodes) .nad-vl120to180 {--nad-vl-color: #00ACC1}
.nad-vl120to180 .nad-bus-0 {--nad-vl-color: #4fc3f7}
.nad-vl120to180 .nad-bus-1 {--nad-vl-color: #01579b}
.nad-vl120to180 .nad-bus-2 {--nad-vl-color: #b3e5fc}
.nad-vl120to180 .nad-bus-3 {--nad-vl-color: #039be5}
.nad-vl120to180 .nad-bus-4 {--nad-vl-color: #81d4fa}
.nad-vl120to180 .nad-bus-5 {--nad-vl-color: #0288d1}
.nad-vl120to180 .nad-bus-6 {--nad-vl-color: #29b6f6}
.nad-vl120to180 .nad-bus-7 {--nad-vl-color: #0277bd}
.nad-vl120to180 .nad-bus-8 {--nad-vl-color: #03a9f4}
:is(.nad-branch-edges, .nad-3wt-edges, .nad-3wt-nodes) .nad-vl180to300 {--nad-vl-color: #2e7d32}
.nad-vl180to300 .nad-bus-0 {--nad-vl-color: #81c784}
.nad-vl180to300 .nad-bus-1 {--nad-vl-color: #558b2f}
.nad-vl180to300 .nad-bus-2 {--nad-vl-color: #c8e6c9}
.nad-vl180to300 .nad-bus-3 {--nad-vl-color: #43a047}
.nad-vl180to300 .nad-bus-4 {--nad-vl-color: #a5d6a7}
.nad-vl180to300 .nad-bus-5 {--nad-vl-color: #388e3c}
.nad-vl180to300 .nad-bus-6 {--nad-vl-color: #66bb6a}
.nad-vl180to300 .nad-bus-7 {--nad-vl-color: #1b5e20}
.nad-vl180to300 .nad-bus-8 {--nad-vl-color: #4caf50}
:is(.nad-branch-edges, .nad-3wt-edges, .nad-3wt-nodes) .nad-vl300to500 {--nad-vl-color: #d32f2f}
.nad-vl300to500 .nad-bus-0 {--nad-vl-color: #ef5350}
.nad-vl300to500 .nad-bus-1 {--nad-vl-color: #ef9a9a}
.nad-vl300to500 .nad-bus-2 {--nad-vl-color: #b71c1c}
.nad-vl300to500 .nad-bus-3 {--nad-vl-color: #e57373}
.nad-vl300to500 .nad-bus-4 {--nad-vl-color: #e53935}
.nad-vl300to500 .nad-bus-5 {--nad-vl-color: #ff8a80}
.nad-vl300to500 .nad-bus-6 {--nad-vl-color: #f44336}
.nad-vl300to500 .nad-bus-7 {--nad-vl-color: #ffcdd2}
.nad-vl300to500 .nad-bus-8 {--nad-vl-color: #c62828}
.nad-branch-edges .nad-overload .nad-edge-path {animation: line-blink 3s infinite}
.nad-vl-nodes .nad-overvoltage {animation: node-over-blink 3s infinite}
.nad-vl-nodes .nad-undervoltage {animation: node-under-blink 3s infinite}
.nad-highlight {stroke-width: 25; opacity: 0.2; fill: none;}
.nad-highlight-0 {stroke: #e6e600;}
.nad-highlight-1 {stroke: #b300b3;}
.nad-highlight-2 {stroke: #2eb82e;}
.nad-highlight-3 {stroke: #e67300;}
.nad-highlight-4 {stroke: #0000ff;}
@keyframes line-blink {
  0%, 80%, 100% {stroke: var(--nad-vl-color, black); stroke-width: 5}
  40% {stroke: #FFEB3B; stroke-width: 15}
}
@keyframes node-over-blink {
  0%, 80%, 100% {stroke: white; stroke-width: 0}
  40% {stroke: #ff5722; stroke-width: 15}
}
@keyframes node-under-blink {
  0%, 80%, 100% {stroke: white; stroke-width: 0}
  40% {stroke: #00BCD4; stroke-width: 15}
}
.nad-load {stroke: var(--nad-vl-color, lightgrey); stroke-width: 3; fill: none}
.nad-battery {stroke: var(--nad-vl-color, lightgrey); stroke-width: 3; fill: none}
.nad-generator {stroke: var(--nad-vl-color, lightgrey); stroke-width: 3; stroke-linecap: round; fill: none}
.nad-capacitor {stroke: var(--nad-vl-color, lightgrey); stroke-width: 3; fill: none}
.nad-inductor {stroke: var(--nad-vl-color, lightgrey); stroke-width: 3; stroke-linejoin: round; stroke-linecap: round; fill: none}
.nad-svc {stroke: var(--nad-vl-color, lightgrey); stroke-width: 3; stroke-linejoin:round; fill: none}
.nad-disconnected .nad-load {stroke: lightgrey}
.nad-disconnected .nad-battery {stroke: lightgrey}
.nad-disconnected .nad-generator {stroke: lightgrey}
.nad-disconnected .nad-capacitor {stroke: lightgrey}
.nad-disconnected .nad-inductor {stroke: lightgrey}
.nad-disconnected .nad-svc {stroke: lightgrey}
.nad-unknown {stroke: none; fill: black}
</style>
    <g class="nad-vl-nodes">
        <g transform="translate(-388.33,-244.73)" id="0" class="nad-vl0to30" iri="urn:uuid:277ce47c-fa5b-438d-9f82-346c887b57fd">
            <circle r="27.50" id="3" class="nad-bus-0 nad-busnode" iri="urn:uuid:277ce47c-fa5b-438d-9f82-346c887b57fd"/>
            <path d="M-20.515,-53.716 A57.500,57.500 345.053 1 1 -33.676,-46.607 L-21.577,-24.304 A32.500,32.500 -333.556 1 0 -8.496,-31.370 Z " id="4" class="nad-bus-1 nad-busnode" iri="urn:uuid:277ce47c-fa5b-438d-9f82-346c887b57fd"/>
        </g>
        <g transform="translate(373.70,-49.67)" id="5" class="nad-vl0to30" iri="urn:uuid:791059a4-3f6e-4242-a478-1fbbf1abc328">
            <circle r="12.50" id="8" class="nad-bus-0 nad-busnode" iri="urn:uuid:791059a4-3f6e-4242-a478-1fbbf1abc328"/>
            <path d="M-27.500,-0.125 A27.500,27.500 328.748 1 1 -23.574,14.160 L-13.421,11.230 A17.500,17.500 -310.889 1 0 -17.275,-2.795 Z " id="10" class="nad-bus-2 nad-busnode" iri="urn:uuid:791059a4-3f6e-4242-a478-1fbbf1abc328"/>
            <path d="M-29.882,30.221 A42.500,42.500 19.848 0 1 -38.368,18.281 L-28.538,15.551 A32.500,32.500 -13.626 0 0 -24.071,21.836 Z M-42.321,3.892 A42.500,42.500 299.708 1 1 -17.594,38.687 L-11.829,30.271 A32.500,32.500 -293.486 1 0 -32.477,1.215 Z " id="11" class="nad-bus-3 nad-busnode" iri="urn:uuid:791059a4-3f6e-4242-a478-1fbbf1abc328"/>
            <path d="M57.469,1.876 A57.500,57.500 115.223 0 1 -26.187,51.191 L-20.463,42.866 A47.500,47.500 -112.076 0 0 47.414,2.852 Z M-38.504,42.705 A57.500,57.500 25.123 0 1 -52.992,22.317 L-43.254,19.631 A47.500,47.500 -21.976 0 0 -32.764,34.391 Z M-56.955,7.895 A57.500,57.500 174.814 0 1 56.009,-13.010 L45.956,-12.014 A47.500,47.500 -171.667 0 0 -47.211,5.227 Z " id="9" class="nad-bus-1 nad-busnode" iri="urn:uuid:791059a4-3f6e-4242-a478-1fbbf1abc328"/>
        </g>
        <g transform="translate(-207.46,110.02)" id="12" class="nad-vl0to30" iri="urn:uuid:8da6d670-4607-4432-abce-49614b85fd8e">
            <circle r="12.50" id="15" class="nad-bus-0 nad-busnode" iri="urn:uuid:8da6d670-4607-4432-abce-49614b85fd8e"/>
            <path d="M3.485,27.278 A27.500,27.500 328.748 1 1 17.131,21.512 L12.894,11.832 A17.500,17.500 -310.889 1 0 -0.504,17.493 Z " id="16" class="nad-bus-1 nad-busnode" iri="urn:uuid:8da6d670-4607-4432-abce-49614b85fd8e"/>
            <path d="M-38.074,-18.884 A42.500,42.500 210.603 1 1 23.158,35.637 L19.162,26.250 A32.500,32.500 -204.381 1 0 -28.289,-16.000 Z M9.412,41.445 A42.500,42.500 108.953 0 1 -42.255,-4.559 L-32.454,-1.728 A32.500,32.500 -102.731 0 0 5.467,32.037 Z " id="17" class="nad-bus-2 nad-busnode" iri="urn:uuid:8da6d670-4607-4432-abce-49614b85fd8e"/>
            <path d="M-52.633,-23.152 A57.500,57.500 215.878 1 1 29.079,49.605 L25.138,40.303 A47.500,47.500 -212.731 1 0 -42.938,-20.312 Z M15.301,55.427 A57.500,57.500 7.512 0 1 7.923,56.952 L7.834,46.850 A47.500,47.500 -4.366 0 0 11.378,46.117 Z M-7.034,57.068 A57.500,57.500 91.769 0 1 -56.824,-8.793 L-47.123,-5.972 A47.500,47.500 -88.623 0 0 -7.103,46.966 Z " id="18" class="nad-bus-3 nad-busnode" iri="urn:uuid:8da6d670-4607-4432-abce-49614b85fd8e"/>
        </g>
        <g transform="translate(333.77,-449.48)" id="19" class="nad-vl0to30" iri="urn:uuid:91ef68b3-8878-47a4-b24f-66f42bb459ba">
            <circle r="17.50" id="22" class="nad-bus-0 nad-busnode" iri="urn:uuid:91ef68b3-8878-47a4-b24f-66f42bb459ba"/>
            <path d="M29.071,23.688 A37.500,37.500 337.082 1 1 36.001,10.497 L22.246,3.371 A22.500,22.500 -321.803 1 0 15.398,16.406 Z " id="24" class="nad-bus-2 nad-busnode" iri="urn:uuid:91ef68b3-8878-47a4-b24f-66f42bb459ba"/>
            <path d="M2.616,-57.440 A57.500,57.500 107.634 0 1 53.949,19.894 L40.510,12.854 A42.500,42.500 -102.359 0 0 3.885,-42.322 Z M46.992,33.136 A57.500,57.500 222.472 1 1 -12.288,-56.172 L-10.983,-41.056 A42.500,42.500 -217.197 1 0 33.570,26.064 Z " id="23" class="nad-bus-1 nad-busnode" iri="urn:uuid:91ef68b3-8878-47a4-b24f-66f42bb459ba"/>
        </g>
        <g transform="translate(-204.23,524.64)" id="25" class="nad-vl0to30" iri="urn:uuid:bb017e3b-c1e1-463c-b719-fe73df802624">
            <circle r="27.50" id="28" class="nad-bus-0 nad-busnode" iri="urn:uuid:bb017e3b-c1e1-463c-b719-fe73df802624"/>
            <path d="M-51.724,25.116 A57.500,57.500 345.053 1 1 -43.496,37.607 L-22.332,23.612 A32.500,32.500 -333.556 1 0 -30.510,11.196 Z " id="29" class="nad-bus-1 nad-busnode" iri="urn:uuid:bb017e3b-c1e1-463c-b719-fe73df802624"/>
        </g>
        <g transform="translate(89.08,309.17)" id="30" class="nad-vl0to30" iri="urn:uuid:d82114b7-09c0-4cb4-b9c8-19a5fdaf991a">
            <circle r="17.50" id="33" class="nad-bus-0 nad-busnode" iri="urn:uuid:d82114b7-09c0-4cb4-b9c8-19a5fdaf991a"/>
            <path d="M-16.481,33.684 A37.500,37.500 337.082 1 1 -2.063,37.443 L1.760,22.431 A22.500,22.500 -321.803 1 0 -12.488,18.717 Z " id="34" class="nad-bus-1 nad-busnode" iri="urn:uuid:d82114b7-09c0-4cb4-b9c8-19a5fdaf991a"/>
            <path d="M57.071,7.007 A57.500,57.500 90.140 0 1 -7.146,57.054 L-3.336,42.369 A42.500,42.500 -84.864 0 0 41.900,7.115 Z M-21.620,53.281 A57.500,57.500 239.967 1 1 56.948,-7.950 L41.777,-7.807 A42.500,42.500 -234.691 1 0 -17.775,38.604 Z " id="35" class="nad-bus-2 nad-busnode" iri="urn:uuid:d82114b7-09c0-4cb4-b9c8-19a5fdaf991a"/>
        </g>
        <g transform="translate(754.03,123.62)" id="36" class="nad-vl0to30" iri="urn:uuid:d87764a9-3363-4342-908f-d96f8e7ef71d">
            <circle r="12.50" id="39" class="nad-bus-0 nad-busnode" iri="urn:uuid:d87764a9-3363-4342-908f-d96f8e7ef71d"/>
            <path d="M21.706,-16.885 A27.500,27.500 328.748 1 1 9.797,-25.696 L3.621,-17.121 A17.500,17.500 -310.889 1 0 15.313,-8.471 Z " id="40" class="nad-bus-1 nad-busnode" iri="urn:uuid:d87764a9-3363-4342-908f-d96f8e7ef71d"/>
            <path d="M30.883,-29.198 A42.500,42.500 195.778 1 1 -37.658,19.700 L-27.937,16.606 A32.500,32.500 -189.556 1 0 24.793,-21.013 Z M-42.147,5.469 A42.500,42.500 123.778 0 1 18.887,-38.073 L12.841,-29.855 A32.500,32.500 -117.556 0 0 -32.409,2.427 Z " id="41" class="nad-bus-2 nad-busnode" iri="urn:uuid:d87764a9-3363-4342-908f-d96f8e7ef71d"/>
            <path d="M39.920,-41.384 A57.500,57.500 93.053 0 1 39.199,42.068 L33.323,33.850 A47.500,47.500 -89.907 0 0 33.904,-33.268 Z M27.022,50.755 A57.500,57.500 93.053 0 1 -52.122,24.280 L-42.490,21.232 A47.500,47.500 -89.907 0 0 21.163,42.525 Z M-56.621,10.016 A57.500,57.500 129.053 0 1 27.896,-50.280 L21.895,-42.153 A47.500,47.500 -125.907 0 0 -46.983,6.986 Z " id="42" class="nad-bus-3 nad-busnode" iri="urn:uuid:d87764a9-3363-4342-908f-d96f8e7ef71d"/>
        </g>
    </g>
    <g class="nad-branch-edges">
        <g id="48" iri="urn:uuid:81567f71-8233-4e19-8357-e75d35e89470">
            <path class="nad-vl0to30 nad-edge-path" d="M-445.81,-246.36 L-468.30,-247.00 C-508.28,-248.13 -511.48,-273.59 -490.51,-307.65"/>
            <path class="nad-vl0to30 nad-edge-path" d="M-401.40,-268.93 L-426.35,-315.12 C-445.36,-350.31 -469.54,-341.71 -490.51,-307.65"/>
        </g>
        <g id="51" iri="urn:uuid:f2ed5944-a394-4802-8ec9-936bc60e5bc4">
            <polyline class="nad-vl0to30 nad-edge-path" points="-330.83,-244.47 -196.12,-243.85"/>
        </g>
        <g id="54" iri="urn:uuid:fe0a5228-5eb4-4008-9ee6-d22389f798e9">
            <polyline class="nad-vl0to30 nad-edge-path" points="-362.21,-193.50 -297.90,-67.35"/>
            <polyline class="nad-vl0to30 nad-edge-path" points="-233.58,58.80 -297.90,-67.35"/>
        </g>
        <g id="57" iri="urn:uuid:320b9701-cae3-478e-a70b-03d1736ed4e3">
            <polyline class="nad-vl0to30 nad-edge-path" points="701.70,99.78 563.86,36.97"/>
            <polyline class="nad-vl0to30 nad-edge-path" points="426.03,-25.83 563.86,36.97"/>
        </g>
        <g id="60" iri="urn:uuid:797fe5ce-1857-4bea-8a0f-728a4b4c30ed">
            <path class="nad-vl0to30 nad-edge-path" d="M397.45,-102.04 L406.74,-122.53 C423.27,-158.96 447.98,-152.06 471.27,-119.53"/>
            <path class="nad-vl0to30 nad-edge-path" d="M416.00,-53.82 L453.32,-57.48 C493.13,-61.39 494.55,-87.01 471.27,-119.53"/>
        </g>
        <g id="63" iri="urn:uuid:8dcf0a96-206b-4da2-814d-4030ac0dfaec">
            <path class="nad-vl0to30 nad-edge-path" d="M398.40,2.26 L408.06,22.57 C425.24,58.70 404.02,73.13 364.15,69.95"/>
            <path class="nad-vl0to30 nad-edge-path" d="M358.10,-27.03 L328.31,16.21 C305.62,49.15 324.28,66.76 364.15,69.95"/>
        </g>
        <g id="66" iri="urn:uuid:e0e00668-9e76-461f-b310-8c84afb9ffe6">
            <polyline class="nad-vl0to30 nad-edge-path" points="-152.02,94.79 104.81,24.21"/>
            <polyline class="nad-vl0to30 nad-edge-path" points="361.65,-46.36 104.81,24.21"/>
        </g>
        <g id="69" iri="urn:uuid:ead7f7fd-d132-43b5-b561-1b0e65b0a562">
            <polyline class="nad-vl0to30 nad-edge-path" points="339.48,-392.27 353.73,-249.58"/>
            <polyline class="nad-vl0to30 nad-edge-path" points="367.99,-106.89 353.73,-249.58"/>
        </g>
        <g id="72" iri="urn:uuid:30d15518-d0ac-4800-a5c1-da8593c790ed">
            <polyline class="nad-vl0to30 nad-edge-path" points="-204.68,467.14 -205.91,309.83"/>
            <polyline class="nad-vl0to30 nad-edge-path" points="-207.13,152.52 -205.91,309.83"/>
        </g>
        <g id="75" iri="urn:uuid:93efed67-8a75-487c-8e1d-0d31ee4a2fc3">
            <path class="nad-vl0to30 nad-edge-path" d="M-150.40,117.12 L-128.07,119.90 C-88.38,124.84 -87.62,150.49 -111.75,182.40"/>
            <path class="nad-vl0to30 nad-edge-path" d="M-202.60,121.54 L-176.33,183.71 C-160.76,220.56 -135.87,214.30 -111.75,182.40"/>
        </g>
        <g id="78" iri="urn:uuid:b6bbea56-f530-4f7b-9a94-9b7fdeb58779">
            <path class="nad-vl0to30 nad-edge-path" d="M-249.01,149.77 L-265.27,165.32 C-294.17,192.97 -314.54,177.36 -324.03,138.51"/>
            <path class="nad-vl0to30 nad-edge-path" d="M-233.86,102.32 L-284.26,87.61 C-322.66,76.40 -333.53,99.65 -324.03,138.51"/>
        </g>
        <g id="81" iri="urn:uuid:46bce40c-71c2-4d19-b63f-78a69c460b0e">
            <path class="nad-vl0to30 nad-edge-path" d="M281.71,-473.90 L261.34,-483.46 C225.13,-500.45 232.35,-525.07 265.17,-547.94"/>
            <path class="nad-vl0to30 nad-edge-path" d="M330.59,-486.85 L326.98,-529.19 C323.59,-569.05 297.99,-570.81 265.17,-547.94"/>
        </g>
        <g id="84" iri="urn:uuid:84329e8e-2efe-4870-82db-a0bf9a768bd2">
            <path class="nad-vl0to30 nad-edge-path" d="M382.38,-480.19 L401.40,-492.21 C435.22,-513.58 452.08,-494.23 453.67,-454.27"/>
            <path class="nad-vl0to30 nad-edge-path" d="M349.26,-441.34 L404.59,-412.28 C440.00,-393.67 455.27,-414.30 453.67,-454.27"/>
        </g>
        <g id="87" iri="urn:uuid:9d58e5bb-834c-4faa-928c-7da0bb1497d9">
            <polyline class="nad-vl0to30 nad-edge-path" points="284.71,-419.48 164.93,-346.23"/>
        </g>
        <g id="90" iri="urn:uuid:0103615e-f6cc-4cb8-a338-a7fb714cdfa2">
            <polyline class="nad-vl0to30 nad-edge-path" points="42.74,343.21 -57.58,416.91"/>
            <polyline class="nad-vl0to30 nad-edge-path" points="-157.89,490.60 -57.58,416.91"/>
        </g>
        <g id="93" iri="urn:uuid:919be6f3-be6b-449d-af3d-4d0a7a221ff5">
            <path class="nad-vl0to30 nad-edge-path" d="M-200.85,582.04 L-199.52,604.50 C-197.17,644.43 -222.25,649.84 -258.01,631.91"/>
            <path class="nad-vl0to30 nad-edge-path" d="M-227.20,539.77 L-271.04,568.65 C-304.44,590.65 -293.77,613.99 -258.01,631.91"/>
        </g>
        <g id="96" iri="urn:uuid:43dbe66c-a342-44b0-b9cf-058c784cef1d">
            <path class="nad-vl0to30 nad-edge-path" d="M117.42,259.14 L128.51,239.56 C148.22,204.76 172.22,213.84 192.50,248.31"/>
            <path class="nad-vl0to30 nad-edge-path" d="M126.58,308.86 L169.08,308.51 C209.08,308.18 212.79,282.79 192.50,248.31"/>
        </g>
        <g id="99" iri="urn:uuid:50e4056a-92e6-4bc2-b6e1-4d66f1624c38">
            <polyline class="nad-vl0to30 nad-edge-path" points="79.53,252.47 42.58,33.10"/>
        </g>
        <g id="102" iri="urn:uuid:70b19e4c-edb9-4957-885c-59b7a515724f">
            <path class="nad-vl0to30 nad-edge-path" d="M130.01,349.55 L146.03,365.36 C174.50,393.45 159.49,414.26 120.92,424.87"/>
            <path class="nad-vl0to30 nad-edge-path" d="M84.66,326.11 L68.90,386.58 C58.81,425.29 82.36,435.48 120.92,424.87"/>
        </g>
        <g id="105" iri="urn:uuid:3f90847f-9450-47aa-a2fa-714cc5353867">
            <path class="nad-vl0to30 nad-edge-path" d="M731.09,70.89 L722.12,50.25 C706.17,13.57 727.86,-0.14 767.60,4.39"/>
            <path class="nad-vl0to30 nad-edge-path" d="M761.46,113.57 L801.61,59.30 C825.40,27.15 807.34,8.91 767.60,4.39"/>
        </g>
        <g id="108" iri="urn:uuid:446700b3-38fb-4cfe-aa71-11fdf6118a49">
            <path class="nad-vl0to30 nad-edge-path" d="M811.26,118.10 L833.66,115.94 C873.47,112.11 879.81,136.97 863.23,173.37"/>
            <path class="nad-vl0to30 nad-edge-path" d="M778.71,158.21 L800.49,188.74 C823.72,221.30 846.64,209.77 863.23,173.37"/>
        </g>
        <g id="111" iri="urn:uuid:6f519536-eefe-452e-8294-c115bf21581d">
            <path class="nad-vl0to30 nad-edge-path" d="M741.59,179.75 L736.72,201.72 C728.06,240.77 702.46,239.12 672.96,212.10"/>
            <path class="nad-vl0to30 nad-edge-path" d="M727.80,131.89 L677.73,147.68 C639.58,159.71 643.47,185.07 672.96,212.10"/>
        </g>
    </g>
    <g class="nad-edge-infos">
        <g id="49" transform="translate(-468.30,-247.00)">
            <path transform="rotate(-88.38)" class="nad-active nad-arrow-out" d="M-10 10 H10 L0 -10z"/>
            <text transform="rotate(-358.38)" class="nad-active" x="-19.00" style="text-anchor:end">0</text>
        </g>
        <g id="50" transform="translate(-426.35,-315.12)">
            <path transform="rotate(-28.38)" class="nad-active nad-arrow-in" d="M-10 -10 H10 L0 10z"/>
            <text transform="rotate(-298.38)" class="nad-active" x="-19.00" style="text-anchor:end">-0</text>
        </g>
        <g id="53" transform="translate(-298.33,-244.32)">
            <path transform="rotate(90.26)" class="nad-active nad-arrow-in" d="M-10 -10 H10 L0 10z"/>
            <text transform="rotate(0.26)" class="nad-active" x="19.00">-0</text>
        </g>
        <g id="55" transform="translate(-347.45,-164.55)">
            <path transform="rotate(152.99)" class="nad-active nad-arrow-out" d="M-10 10 H10 L0 -10z"/>
            <text transform="rotate(62.99)" class="nad-active" x="19.00">0</text>
        </g>
        <g id="56" transform="translate(-248.34,29.84)">
            <path transform="rotate(-27.01)" class="nad-active nad-arrow-in" d="M-10 -10 H10 L0 10z"/>
            <text transform="rotate(-297.01)" class="nad-active" x="-19.00" style="text-anchor:end">-0</text>
        </g>
        <g id="58" transform="translate(672.13,86.30)">
            <path transform="rotate(-65.50)" class="nad-active nad-arrow-out" d="M-10 10 H10 L0 -10z"/>
            <text transform="rotate(-335.50)" class="nad-active" x="-19.00" style="text-anchor:end">0</text>
        </g>
        <g id="59" transform="translate(455.60,-12.36)">
            <path transform="rotate(114.50)" class="nad-active nad-arrow-in" d="M-10 -10 H10 L0 10z"/>
            <text transform="rotate(24.50)" class="nad-active" x="19.00">-0</text>
        </g>
        <g id="61" transform="translate(406.74,-122.53)">
            <path transform="rotate(24.40)" class="nad-active nad-arrow-out" d="M-10 10 H10 L0 -10z"/>
            <text transform="rotate(-65.60)" class="nad-active" x="19.00">0</text>
        </g>
        <g id="62" transform="translate(453.32,-57.48)">
            <path transform="rotate(84.40)" class="nad-active nad-arrow-in" d="M-10 -10 H10 L0 10z"/>
            <text transform="rotate(-5.60)" class="nad-active" x="19.00">-0</text>
        </g>
        <g id="64" transform="translate(408.06,22.57)">
            <path transform="rotate(154.57)" class="nad-active nad-arrow-out" d="M-10 10 H10 L0 -10z"/>
            <text transform="rotate(64.57)" class="nad-active" x="19.00">0</text>
        </g>
        <g id="65" transform="translate(328.31,16.21)">
            <path transform="rotate(-145.43)" class="nad-active nad-arrow-in" d="M-10 -10 H10 L0 10z"/>
            <text transform="rotate(-55.43)" class="nad-active" x="-19.00" style="text-anchor:end">-0</text>
        </g>
        <g id="67" transform="translate(-120.68,86.18)">
            <path transform="rotate(74.64)" class="nad-active nad-arrow-out" d="M-10 10 H10 L0 -10z"/>
            <text transform="rotate(-15.36)" class="nad-active" x="19.00">0</text>
        </g>
        <g id="68" transform="translate(286.92,-25.82)">
            <path transform="rotate(-105.36)" class="nad-active nad-arrow-out" d="M-10 10 H10 L0 -10z"/>
            <text transform="rotate(-15.36)" class="nad-active" x="-19.00" style="text-anchor:end">0</text>
        </g>
        <g id="70" transform="translate(342.71,-359.93)">
            <path transform="rotate(174.30)" class="nad-active nad-arrow-out" d="M-10 10 H10 L0 -10z"/>
            <text transform="rotate(84.30)" class="nad-active" x="19.00">0</text>
        </g>
        <g id="71" transform="translate(364.76,-139.23)">
            <path transform="rotate(-5.70)" class="nad-active nad-arrow-in" d="M-10 -10 H10 L0 10z"/>
            <text transform="rotate(-275.70)" class="nad-active" x="-19.00" style="text-anchor:end">-0</text>
        </g>
        <g id="73" transform="translate(-204.93,434.64)">
            <path transform="rotate(-0.45)" class="nad-active nad-arrow-out" d="M-10 10 H10 L0 -10z"/>
            <text transform="rotate(-270.45)" class="nad-active" x="-19.00" style="text-anchor:end">0</text>
        </g>
        <g id="74" transform="translate(-206.76,200.02)">
            <path transform="rotate(179.55)" class="nad-active nad-arrow-out" d="M-10 10 H10 L0 -10z"/>
            <text transform="rotate(89.55)" class="nad-active" x="19.00">0</text>
        </g>
        <g id="76" transform="translate(-128.07,119.90)">
            <path transform="rotate(97.09)" class="nad-active nad-arrow-out" d="M-10 10 H10 L0 -10z"/>
            <text transform="rotate(7.09)" class="nad-active" x="19.00">0</text>
        </g>
        <g id="77" transform="translate(-176.33,183.71)">
            <path transform="rotate(157.09)" class="nad-active nad-arrow-in" d="M-10 -10 H10 L0 10z"/>
            <text transform="rotate(67.09)" class="nad-active" x="19.00">-0</text>
        </g>
        <g id="79" transform="translate(-265.27,165.32)">
            <path transform="rotate(-133.73)" class="nad-active nad-arrow-out" d="M-10 10 H10 L0 -10z"/>
            <text transform="rotate(-43.73)" class="nad-active" x="-19.00" style="text-anchor:end">0</text>
        </g>
        <g id="80" transform="translate(-284.26,87.61)">
            <path transform="rotate(-73.73)" class="nad-active nad-arrow-in" d="M-10 -10 H10 L0 10z"/>
            <text transform="rotate(-343.73)" class="nad-active" x="-19.00" style="text-anchor:end">-0</text>
        </g>
        <g id="82" transform="translate(261.34,-483.46)">
            <path transform="rotate(-64.87)" class="nad-active nad-arrow-out" d="M-10 10 H10 L0 -10z"/>
            <text transform="rotate(-334.87)" class="nad-active" x="-19.00" style="text-anchor:end">0</text>
        </g>
        <g id="83" transform="translate(326.98,-529.19)">
            <path transform="rotate(-4.87)" class="nad-active nad-arrow-in" d="M-10 -10 H10 L0 10z"/>
            <text transform="rotate(-274.87)" class="nad-active" x="-19.00" style="text-anchor:end">-0</text>
        </g>
        <g id="85" transform="translate(401.40,-492.21)">
            <path transform="rotate(57.72)" class="nad-active nad-arrow-out" d="M-10 10 H10 L0 -10z"/>
            <text transform="rotate(-32.28)" class="nad-active" x="19.00">0</text>
        </g>
        <g id="86" transform="translate(404.59,-412.28)">
            <path transform="rotate(117.72)" class="nad-active nad-arrow-in" d="M-10 -10 H10 L0 10z"/>
            <text transform="rotate(27.72)" class="nad-active" x="19.00">-0</text>
        </g>
        <g id="89" transform="translate(256.99,-402.53)">
            <path transform="rotate(-121.45)" class="nad-active nad-arrow-in" d="M-10 -10 H10 L0 10z"/>
            <text transform="rotate(-31.45)" class="nad-active" x="-19.00" style="text-anchor:end">-0</text>
        </g>
        <g id="91" transform="translate(16.55,362.45)">
            <path transform="rotate(-126.30)" class="nad-active nad-arrow-out" d="M-10 10 H10 L0 -10z"/>
            <text transform="rotate(-36.30)" class="nad-active" x="-19.00" style="text-anchor:end">0</text>
        </g>
        <g id="92" transform="translate(-131.70,471.36)">
            <path transform="rotate(53.70)" class="nad-active nad-arrow-in" d="M-10 -10 H10 L0 10z"/>
            <text transform="rotate(-36.30)" class="nad-active" x="19.00">-0</text>
        </g>
        <g id="94" transform="translate(-199.52,604.50)">
            <path transform="rotate(176.63)" class="nad-active nad-arrow-out" d="M-10 10 H10 L0 -10z"/>
            <text transform="rotate(86.63)" class="nad-active" x="19.00">0</text>
        </g>
        <g id="95" transform="translate(-271.04,568.65)">
            <path transform="rotate(-123.37)" class="nad-active nad-arrow-in" d="M-10 -10 H10 L0 10z"/>
            <text transform="rotate(-33.37)" class="nad-active" x="-19.00" style="text-anchor:end">-0</text>
        </g>
        <g id="97" transform="translate(128.51,239.56)">
            <path transform="rotate(29.53)" class="nad-active nad-arrow-out" d="M-10 10 H10 L0 -10z"/>
            <text transform="rotate(-60.47)" class="nad-active" x="19.00">0</text>
        </g>
        <g id="98" transform="translate(169.08,308.51)">
            <path transform="rotate(89.53)" class="nad-active nad-arrow-in" d="M-10 -10 H10 L0 10z"/>
            <text transform="rotate(-0.47)" class="nad-active" x="19.00">-0</text>
        </g>
        <g id="101" transform="translate(74.13,220.42)">
            <path transform="rotate(-9.56)" class="nad-active nad-arrow-in" d="M-10 -10 H10 L0 10z"/>
            <text transform="rotate(-279.56)" class="nad-active" x="-19.00" style="text-anchor:end">-0</text>
        </g>
        <g id="103" transform="translate(146.03,365.36)">
            <path transform="rotate(134.61)" class="nad-active nad-arrow-out" d="M-10 10 H10 L0 -10z"/>
            <text transform="rotate(44.61)" class="nad-active" x="19.00">0</text>
        </g>
        <g id="104" transform="translate(68.90,386.58)">
            <path transform="rotate(-165.39)" class="nad-active nad-arrow-in" d="M-10 -10 H10 L0 10z"/>
            <text transform="rotate(-75.39)" class="nad-active" x="-19.00" style="text-anchor:end">-0</text>
        </g>
        <g id="106" transform="translate(722.12,50.25)">
            <path transform="rotate(-23.50)" class="nad-active nad-arrow-out" d="M-10 10 H10 L0 -10z"/>
            <text transform="rotate(-293.50)" class="nad-active" x="-19.00" style="text-anchor:end">0</text>
        </g>
        <g id="107" transform="translate(801.61,59.30)">
            <path transform="rotate(36.50)" class="nad-active nad-arrow-in" d="M-10 -10 H10 L0 10z"/>
            <text transform="rotate(-53.50)" class="nad-active" x="19.00">-0</text>
        </g>
        <g id="109" transform="translate(833.66,115.94)">
            <path transform="rotate(84.50)" class="nad-active nad-arrow-out" d="M-10 10 H10 L0 -10z"/>
            <text transform="rotate(-5.50)" class="nad-active" x="19.00">0</text>
        </g>
        <g id="110" transform="translate(800.49,188.74)">
            <path transform="rotate(144.50)" class="nad-active nad-arrow-in" d="M-10 -10 H10 L0 10z"/>
            <text transform="rotate(54.50)" class="nad-active" x="19.00">-0</text>
        </g>
        <g id="112" transform="translate(736.72,201.72)">
            <path transform="rotate(-167.50)" class="nad-active nad-arrow-out" d="M-10 10 H10 L0 -10z"/>
            <text transform="rotate(-77.50)" class="nad-active" x="-19.00" style="text-anchor:end">0</text>
        </g>
        <g id="113" transform="translate(677.73,147.68)">
            <path transform="rotate(-107.50)" class="nad-active nad-arrow-in" d="M-10 -10 H10 L0 10z"/>
            <text transform="rotate(-17.50)" class="nad-active" x="-19.00" style="text-anchor:end">-0</text>
        </g>
    </g>
    <g class="nad-text-edges">
        <polyline id="2" points="-328.99,-253.63 -288.33,-259.73"/>
        <polyline id="7" points="433.04,-58.57 473.70,-64.67"/>
        <polyline id="14" points="-148.13,101.12 -107.46,95.02"/>
        <polyline id="21" points="393.10,-458.38 433.77,-464.48"/>
        <polyline id="27" points="-144.90,515.74 -104.23,509.64"/>
        <polyline id="32" points="148.42,300.27 189.08,294.17"/>
        <polyline id="38" points="813.36,114.72 854.03,108.62"/>
    </g>
    <foreignObject height="1" width="1" class="nad-text-nodes">
        <div xmlns="http://www.w3.org/1999/xhtml">
            <div style="position: absolute; top: -285px; left: -288px" id="1" class="nad-vl0to30 nad-label-box" iri="urn:uuid:277ce47c-fa5b-438d-9f82-346c887b57fd">
                <div>04 TELEMA 2 VL4</div>
                <div class="nad-bus-descr">
                    <span class="nad-bus-0 nad-legend-square"/>0.2 kV / -5.1°</div>
                <div class="nad-bus-descr">
                    <span class="nad-bus-1 nad-legend-square"/>0.2 kV / -5.1°</div>
            </div>
            <div style="position: absolute; top: -90px; left: 474px" id="6" class="nad-vl0to30 nad-label-box" iri="urn:uuid:791059a4-3f6e-4242-a478-1fbbf1abc328">
                <div>04 TELEMA 2 VL3</div>
                <div class="nad-bus-descr">
                    <span class="nad-bus-0 nad-legend-square"/>0.2 kV / -5.1°</div>
                <div class="nad-bus-descr">
                    <span class="nad-bus-2 nad-legend-square"/>0.2 kV / -5.1°</div>
                <div class="nad-bus-descr">
                    <span class="nad-bus-3 nad-legend-square"/>0.2 kV / -5.1°</div>
                <div class="nad-bus-descr">
                    <span class="nad-bus-1 nad-legend-square"/>0.2 kV / -5.1°</div>
            </div>
            <div style="position: absolute; top: 70px; left: -107px" id="13" class="nad-vl0to30 nad-label-box" iri="urn:uuid:8da6d670-4607-4432-abce-49614b85fd8e">
                <div>04 TELEMA 2 VL5</div>
                <div class="nad-bus-descr">
                    <span class="nad-bus-0 nad-legend-square"/>0.2 kV / -5.1°</div>
                <div class="nad-bus-descr">
                    <span class="nad-bus-1 nad-legend-square"/>0.2 kV / -5.1°</div>
                <div class="nad-bus-descr">
                    <span class="nad-bus-2 nad-legend-square"/>0.2 kV / -5.1°</div>
                <div class="nad-bus-descr">
                    <span class="nad-bus-3 nad-legend-square"/>0.2 kV / -5.1°</div>
            </div>
            <div style="position: absolute; top: -489px; left: 434px" id="20" class="nad-vl0to30 nad-label-box" iri="urn:uuid:91ef68b3-8878-47a4-b24f-66f42bb459ba">
                <div>04 TELEMA 2 VL1</div>
                <div class="nad-bus-descr">
                    <span class="nad-bus-0 nad-legend-square"/>0.2 kV / -5.1°</div>
                <div class="nad-bus-descr">
                    <span class="nad-bus-2 nad-legend-square"/>0.2 kV / -5.1°</div>
                <div class="nad-bus-descr">
                    <span class="nad-bus-1 nad-legend-square"/>0.2 kV / -5.1°</div>
            </div>
            <div style="position: absolute; top: 485px; left: -104px" id="26" class="nad-vl0to30 nad-label-box" iri="urn:uuid:bb017e3b-c1e1-463c-b719-fe73df802624">
                <div>04 TELEMA 2 VL7</div>
                <div class="nad-bus-descr">
                    <span class="nad-bus-0 nad-legend-square"/>0.2 kV / -5.1°</div>
                <div class="nad-bus-descr">
                    <span class="nad-bus-1 nad-legend-square"/>0.2 kV / -5.1°</div>
            </div>
            <div style="position: absolute; top: 269px; left: 189px" id="31" class="nad-vl0to30 nad-label-box" iri="urn:uuid:d82114b7-09c0-4cb4-b9c8-19a5fdaf991a">
                <div>04 TELEMA 2 VL6</div>
                <div class="nad-bus-descr">
                    <span class="nad-bus-0 nad-legend-square"/>0.2 kV / -5.1°</div>
                <div class="nad-bus-descr">
                    <span class="nad-bus-1 nad-legend-square"/>0.2 kV / -5.1°</div>
                <div class="nad-bus-descr">
                    <span class="nad-bus-2 nad-legend-square"/>0.2 kV / -5.1°</div>
            </div>
            <div style="position: absolute; top: 84px; left: 854px" id="37" class="nad-vl0to30 nad-label-box" iri="urn:uuid:d87764a9-3363-4342-908f-d96f8e7ef71d">
                <div>04 TELEMA 2 VL2</div>
                <div class="nad-bus-descr">
                    <span class="nad-bus-0 nad-legend-square"/>0.2 kV / -5.1°</div>
                <div class="nad-bus-descr">
                    <span class="nad-bus-1 nad-legend-square"/>0.2 kV / -5.1°</div>
                <div class="nad-bus-descr">
                    <span class="nad-bus-2 nad-legend-square"/>0.2 kV / -5.1°</div>
                <div class="nad-bus-descr">
                    <span class="nad-bus-3 nad-legend-square"/>0.2 kV / -5.1°</div>
            </div>
        </div>
    </foreignObject>
</svg>