<?xml version="1.0" encoding="UTF-8"?>
<svg id="Layer_1" xmlns="http://www.w3.org/2000/svg" version="1.1" viewBox="0 0 395.4 192">
  <!-- Generator: Adobe Illustrator 29.4.0, SVG Export Plug-In . SVG Version: 2.1.0 Build 152)  -->
  <defs>
    <style>
      .st0 {
        fill: #001fff;
      }

      .st1 {
        fill: #210f61;
      }

      .st2 {
        fill: #fff;
      }
    </style>
  </defs>
  <rect class="st0" x="303.4" y="137.9" width="64.4" height="26.5"/>
  <g>
    <path class="st2" d="M312.5,157.4c-1.1-.6-1.9-1.4-2.6-2.5s-.9-2.3-.9-3.6.3-2.5.9-3.6c.6-1.1,1.5-1.9,2.6-2.5,1.1-.6,2.3-.9,3.5-.9s2.5.3,3.5.9c1.1.6,1.9,1.4,2.5,2.5.6,1.1.9,2.3.9,3.6s-.3,2.6-.9,3.6-1.5,1.9-2.5,2.5c-1.1.6-2.3.9-3.5.9s-2.5-.3-3.5-.9ZM318.2,155.3c.6-.4,1.1-.9,1.5-1.6.4-.7.5-1.5.5-2.4s-.2-1.7-.5-2.4c-.4-.7-.8-1.2-1.5-1.6-.6-.4-1.4-.6-2.2-.6s-1.6.2-2.2.6c-.6.4-1.1.9-1.5,1.6-.4.7-.5,1.5-.5,2.4s.2,1.7.5,2.4c.4.7.8,1.2,1.5,1.6.6.4,1.4.6,2.2.6s1.6-.2,2.2-.6Z"/>
    <path class="st2" d="M335.3,150.8c-.3.6-.9,1.2-1.6,1.6-.7.4-1.7.6-2.8.6h-2.3v5.3h-2.8v-13.7h5c1.1,0,2,.2,2.7.5.7.4,1.3.9,1.7,1.5s.6,1.4.6,2.2-.2,1.4-.5,2.1ZM332.5,150.2c.4-.3.5-.8.5-1.5,0-1.3-.7-2-2.2-2h-2.2v4h2.2c.8,0,1.3-.2,1.7-.5Z"/>
    <path class="st2" d="M341.3,146.7v3.4h4.6v2.2h-4.6v3.6h5.2v2.2h-8v-13.7h8v2.2h-5.2Z"/>
    <path class="st2" d="M361.6,158.2h-2.8l-6.2-9.4v9.4h-2.8v-13.7h2.8l6.2,9.4v-9.4h2.8v13.7Z"/>
  </g>
  <path class="st1" d="M28.5,73.4c3.1-5.4,7.3-9.6,12.7-12.7,5.4-3,11.4-4.5,18-4.5s14.6,2,20.5,6c5.9,4,9.9,9.5,12.3,16.6h-16.1c-1.6-3.3-3.8-5.8-6.7-7.5-2.9-1.7-6.2-2.5-10-2.5s-7.7.9-10.8,2.8c-3.2,1.9-5.6,4.6-7.4,8-1.8,3.5-2.6,7.5-2.6,12.2s.9,8.6,2.6,12.1c1.8,3.5,4.2,6.2,7.4,8.1,3.2,1.9,6.8,2.8,10.8,2.8s7.1-.8,10-2.5c2.9-1.7,5.1-4.2,6.7-7.5h16.1c-2.3,7.1-6.4,12.7-12.2,16.6-5.8,4-12.7,5.9-20.5,5.9s-12.7-1.5-18-4.5c-5.4-3-9.6-7.2-12.7-12.6-3.1-5.4-4.6-11.5-4.6-18.4s1.5-13,4.6-18.4Z"/>
  <path class="st1" d="M121.9,57.1v69.6h-14V57.1h14Z"/>
  <path class="st1" d="M215.6,57.1v69.6h-14v-45.3l-18.7,45.3h-10.6l-18.8-45.3v45.3h-14V57.1h15.9l22.2,51.8,22.1-51.8h15.8Z"/>
  <path class="st1" d="M367.9,126.7h-14.9l-33.6-47.8v47.8h-14.9V57h14.9l33.6,47.9v-47.9h14.9v69.7Z"/>
  <path class="st0" d="M286.7,79.4c-2.7-4.7-6.5-8.4-11.2-11-.9-.5-1.8-1-2.8-1.4v13.2c1.3,1.3,2.4,2.7,3.3,4.5,1.6,3,2.3,6.6,2.3,10.6s-.8,7.6-2.3,10.6c-1.6,3.1-3.7,5.4-6.5,7.1-2.8,1.6-6,2.5-9.6,2.5s-6.9-.8-9.6-2.5c-2.8-1.6-5-4-6.5-7.1-1.6-3.1-2.3-6.6-2.3-10.6s.8-7.6,2.3-10.6c.9-1.7,2-3.2,3.3-4.4v-13.2c-.9.4-1.8.8-2.7,1.3-4.7,2.7-8.5,6.3-11.2,11-2.8,4.7-4.2,10-4.2,15.9s1.4,11.3,4.2,16c2.8,4.7,6.5,8.4,11.2,11,4.7,2.7,9.9,4,15.6,4s10.8-1.3,15.6-4c4.7-2.7,8.5-6.3,11.2-11,2.7-4.7,4.1-10,4.1-16s-1.4-11.2-4.1-15.9Z"/>
  <rect class="st0" x="253.8" y="57" width="12.6" height="30.8"/>
  <g>
    <path class="st1" d="M35.2,33v1.7h-3.4v11.2h-2.1v-11.2h-3.4v-1.7h8.9Z"/>
    <path class="st1" d="M37.3,38c.4-.8,1-1.4,1.7-1.9.7-.4,1.5-.7,2.4-.7s1.5.2,2.1.5c.6.3,1.1.7,1.4,1.2v-1.5h2.1v10.2h-2.1v-1.5c-.4.5-.8.9-1.5,1.2-.6.3-1.3.5-2.1.5s-1.7-.2-2.4-.7-1.3-1.1-1.7-1.9c-.4-.8-.6-1.7-.6-2.8s.2-1.9.6-2.7ZM44.5,39c-.3-.5-.7-.9-1.1-1.2-.5-.3-1-.4-1.5-.4s-1,.1-1.5.4c-.5.3-.8.7-1.1,1.2-.3.5-.4,1.1-.4,1.8s.1,1.3.4,1.9c.3.5.7.9,1.1,1.2.5.3,1,.4,1.5.4s1-.1,1.5-.4c.5-.3.8-.7,1.1-1.2s.4-1.1.4-1.9-.1-1.3-.4-1.8Z"/>
    <path class="st1" d="M51.9,32.2v13.8h-2.1v-13.8h2.1Z"/>
    <path class="st1" d="M58.7,40.8l4.7,5.1h-2.8l-3.8-4.4v4.4h-2.1v-13.8h2.1v8l3.7-4.5h2.9l-4.7,5.1Z"/>
    <path class="st1" d="M72.1,37.4v5.7c0,.4,0,.7.3.8.2.2.5.3.9.3h1.3v1.8h-1.7c-.9,0-1.7-.2-2.2-.7s-.8-1.2-.8-2.2v-5.7h-1.2v-1.7h1.2v-2.5h2.1v2.5h2.5v1.7h-2.5Z"/>
    <path class="st1" d="M78.3,45.5c-.8-.4-1.4-1.1-1.8-1.9s-.7-1.7-.7-2.8.2-2,.7-2.8c.5-.8,1.1-1.4,1.9-1.9.8-.4,1.7-.7,2.6-.7s1.8.2,2.6.7,1.4,1.1,1.9,1.9c.5.8.7,1.7.7,2.8s-.2,2-.7,2.8c-.5.8-1.1,1.4-1.9,1.9s-1.7.7-2.7.7-1.8-.2-2.6-.7ZM82.4,43.9c.5-.3.9-.7,1.2-1.2.3-.5.4-1.2.4-1.9s-.1-1.4-.4-1.9c-.3-.5-.7-.9-1.1-1.2-.5-.3-1-.4-1.5-.4s-1,.1-1.5.4c-.5.3-.8.6-1.1,1.2-.3.5-.4,1.1-.4,1.9,0,1.1.3,2,.8,2.6.6.6,1.3.9,2.1.9s1-.1,1.5-.4Z"/>
    <path class="st1" d="M101.5,38.7c-.3.6-.8,1.1-1.5,1.4-.7.4-1.5.5-2.6.5h-2.3v5.2h-2.1v-12.9h4.4c1,0,1.8.2,2.5.5.7.3,1.2.8,1.5,1.4.3.6.5,1.2.5,2s-.2,1.3-.5,1.9ZM99.2,38.4c.4-.4.6-.9.6-1.6,0-1.4-.8-2.1-2.4-2.1h-2.3v4.2h2.3c.8,0,1.4-.2,1.8-.5Z"/>
    <path class="st1" d="M105.7,45.5c-.8-.4-1.4-1.1-1.8-1.9s-.7-1.7-.7-2.8.2-2,.7-2.8c.5-.8,1.1-1.4,1.9-1.9.8-.4,1.7-.7,2.6-.7s1.8.2,2.6.7c.8.4,1.4,1.1,1.9,1.9.5.8.7,1.7.7,2.8s-.2,2-.7,2.8c-.5.8-1.1,1.4-1.9,1.9-.8.4-1.7.7-2.7.7s-1.8-.2-2.6-.7ZM109.9,43.9c.5-.3.9-.7,1.1-1.2.3-.5.4-1.2.4-1.9s-.1-1.4-.4-1.9c-.3-.5-.7-.9-1.1-1.2-.5-.3-1-.4-1.5-.4s-1,.1-1.5.4c-.5.3-.8.6-1.1,1.2-.3.5-.4,1.1-.4,1.9,0,1.1.3,2,.8,2.6.6.6,1.3.9,2.1.9s1-.1,1.5-.4Z"/>
    <path class="st1" d="M129.3,35.7l-3.1,10.2h-2.2l-2-7.6-2,7.6h-2.2l-3.2-10.2h2.1l2.1,8.2,2.2-8.2h2.2l2.1,8.2,2.1-8.2h2.1Z"/>
    <path class="st1" d="M140.1,41.6h-7.7c0,.8.4,1.5.9,2,.5.5,1.2.7,2,.7,1.1,0,1.9-.5,2.4-1.4h2.3c-.3.9-.9,1.7-1.7,2.3-.8.6-1.8.9-3,.9s-1.8-.2-2.6-.7c-.8-.4-1.4-1.1-1.8-1.9-.4-.8-.7-1.7-.7-2.8s.2-2,.6-2.8c.4-.8,1-1.4,1.8-1.9s1.6-.7,2.6-.7,1.8.2,2.6.6,1.3,1,1.7,1.8c.4.8.6,1.6.6,2.6s0,.7,0,1ZM138,39.9c0-.8-.3-1.4-.8-1.9s-1.2-.7-2-.7-1.3.2-1.9.7c-.5.5-.8,1.1-.9,1.9h5.6Z"/>
    <path class="st1" d="M145.5,36c.5-.3,1.1-.4,1.8-.4v2.2h-.5c-.8,0-1.4.2-1.9.6-.4.4-.6,1.2-.6,2.2v5.4h-2.1v-10.2h2.1v1.5c.3-.5.7-.9,1.2-1.2Z"/>
    <path class="st1" d="M151.2,45.6c-.7-.3-1.2-.7-1.6-1.3-.4-.6-.6-1.2-.6-2h2.2c0,.6.3,1,.7,1.4.4.4.9.5,1.6.5s1.3-.2,1.7-.5c.4-.4.6-.8.6-1.4s-.1-.8-.4-1.1c-.3-.3-.6-.5-.9-.6-.4-.1-.9-.3-1.6-.5-.8-.2-1.5-.4-2-.7s-1-.6-1.3-1.1c-.4-.5-.6-1.1-.6-1.9s.2-1.4.6-2c.4-.6.9-1,1.5-1.3.7-.3,1.4-.4,2.3-.4,1.2,0,2.3.3,3,.9s1.2,1.5,1.3,2.6h-2.3c0-.5-.3-.9-.7-1.2-.4-.3-.9-.5-1.6-.5s-1.1.2-1.5.5c-.4.3-.6.8-.6,1.3s.1.7.4,1c.2.3.5.5.9.6.4.1.9.3,1.5.5.8.2,1.5.5,2.1.7.5.2,1,.6,1.4,1.1.4.5.6,1.1.6,2s-.2,1.3-.5,1.9c-.3.6-.9,1.1-1.5,1.4-.7.4-1.5.5-2.4.5s-1.6-.2-2.3-.5Z"/>
    <path class="st1" d="M169.5,35.7l-6.2,15.1h-2.2l2.1-5-4-10.1h2.3l2.9,7.8,3-7.8h2.2Z"/>
    <path class="st1" d="M172.6,45.7c-.6-.3-1.1-.7-1.5-1.2-.4-.5-.6-1.1-.6-1.7h2.2c0,.4.2.8.6,1.1.4.3.8.4,1.4.4s1-.1,1.4-.3c.3-.2.5-.5.5-.9s-.2-.7-.5-.9c-.4-.2-.9-.4-1.7-.6-.8-.2-1.4-.4-1.9-.6-.5-.2-.9-.5-1.2-.9-.3-.4-.5-.9-.5-1.6s.2-1,.5-1.5.8-.8,1.4-1.1,1.3-.4,2.1-.4c1.2,0,2.1.3,2.8.9s1.1,1.4,1.1,2.4h-2.1c0-.5-.2-.8-.6-1.1-.3-.3-.8-.4-1.3-.4s-1,.1-1.3.3c-.3.2-.4.5-.4.8s0,.5.3.7.4.3.7.4c.3.1.7.2,1.2.4.7.2,1.3.4,1.8.6.5.2.9.5,1.2.9.3.4.5.9.5,1.6,0,.6-.2,1.1-.5,1.6-.3.5-.8.8-1.4,1.1-.6.3-1.3.4-2.1.4s-1.5-.1-2.1-.4Z"/>
    <path class="st1" d="M183.4,37.4v5.7c0,.4,0,.7.3.8.2.2.5.3.9.3h1.3v1.8h-1.7c-.9,0-1.7-.2-2.2-.7s-.8-1.2-.8-2.2v-5.7h-1.2v-1.7h1.2v-2.5h2.1v2.5h2.5v1.7h-2.5Z"/>
    <path class="st1" d="M197,41.6h-7.7c0,.8.4,1.5.9,2,.5.5,1.2.7,2,.7,1.1,0,1.9-.5,2.4-1.4h2.3c-.3.9-.9,1.7-1.7,2.3-.8.6-1.8.9-3,.9s-1.8-.2-2.6-.7-1.4-1.1-1.8-1.9-.7-1.7-.7-2.8.2-2,.6-2.8c.4-.8,1-1.4,1.8-1.9.8-.4,1.6-.7,2.6-.7s1.8.2,2.6.6,1.3,1,1.7,1.8c.4.8.6,1.6.6,2.6s0,.7,0,1ZM194.8,39.9c0-.8-.3-1.4-.8-1.9-.5-.5-1.2-.7-2-.7s-1.3.2-1.9.7c-.5.5-.8,1.1-.9,1.9h5.6Z"/>
    <path class="st1" d="M213.5,36c.6.3,1.1.8,1.5,1.5.4.7.5,1.5.5,2.4v6h-2.1v-5.7c0-.9-.2-1.6-.7-2.1s-1.1-.7-1.9-.7-1.4.2-1.9.7-.7,1.2-.7,2.1v5.7h-2.1v-5.7c0-.9-.2-1.6-.7-2.1-.5-.5-1.1-.7-1.9-.7s-1.4.2-1.9.7-.7,1.2-.7,2.1v5.7h-2.1v-10.2h2.1v1.2c.3-.4.8-.8,1.3-1,.5-.2,1.1-.4,1.7-.4s1.5.2,2.2.5c.6.3,1.1.8,1.5,1.5.3-.6.8-1.1,1.4-1.5.7-.4,1.3-.5,2.1-.5s1.5.2,2.1.5Z"/>
  </g>
</svg>