<?xml version="1.0" encoding="UTF-8"?>
<svg id="Layer_1" xmlns="http://www.w3.org/2000/svg" version="1.1" viewBox="0 0 395.4 192">
  <!-- Generator: Adobe Illustrator 29.4.0, SVG Export Plug-In . SVG Version: 2.1.0 Build 152)  -->
  <defs>
    <style>
      .st0 {
        fill: #001fff;
      }

      .st1 {
        fill: #210f61;
      }

      .st2 {
        fill: #fff;
      }
    </style>
  </defs>
  <rect class="st0" x="305.7" y="137.9" width="64.4" height="26.5"/>
  <g>
    <path class="st2" d="M314.8,157.4c-1.1-.6-1.9-1.4-2.6-2.5s-.9-2.3-.9-3.6.3-2.5.9-3.6c.6-1.1,1.5-1.9,2.6-2.5,1.1-.6,2.3-.9,3.5-.9s2.5.3,3.5.9c1.1.6,1.9,1.4,2.5,2.5.6,1.1.9,2.3.9,3.6s-.3,2.6-.9,3.6-1.5,1.9-2.5,2.5c-1.1.6-2.3.9-3.5.9s-2.5-.3-3.5-.9ZM320.5,155.3c.6-.4,1.1-.9,1.5-1.6.4-.7.5-1.5.5-2.4s-.2-1.7-.5-2.4c-.4-.7-.8-1.2-1.5-1.6-.6-.4-1.4-.6-2.2-.6s-1.6.2-2.2.6c-.6.4-1.1.9-1.5,1.6-.4.7-.5,1.5-.5,2.4s.2,1.7.5,2.4c.4.7.8,1.2,1.5,1.6.6.4,1.4.6,2.2.6s1.6-.2,2.2-.6Z"/>
    <path class="st2" d="M337.6,150.8c-.3.6-.9,1.2-1.6,1.6-.7.4-1.7.6-2.8.6h-2.3v5.3h-2.8v-13.7h5c1.1,0,2,.2,2.7.5.7.4,1.3.9,1.7,1.5s.6,1.4.6,2.2-.2,1.4-.5,2.1ZM334.8,150.2c.4-.3.5-.8.5-1.5,0-1.3-.7-2-2.2-2h-2.2v4h2.2c.8,0,1.3-.2,1.7-.5Z"/>
    <path class="st2" d="M343.6,146.7v3.4h4.6v2.2h-4.6v3.6h5.2v2.2h-8v-13.7h8v2.2h-5.2Z"/>
    <path class="st2" d="M363.9,158.2h-2.8l-6.2-9.4v9.4h-2.8v-13.7h2.8l6.2,9.4v-9.4h2.8v13.7Z"/>
  </g>
  <g>
    <path class="st1" d="M34.5,35.9v2.2h-3v9.1h-2.7v-9.1h-3v-2.2h8.6Z"/>
    <path class="st1" d="M42.8,45.2h-4.2l-.7,2h-2.8l4-11.3h3.1l4,11.3h-2.9l-.7-2ZM42.1,43l-1.4-4.1-1.4,4.1h2.7Z"/>
    <path class="st1" d="M50.3,45h3.6v2.1h-6.3v-11.3h2.7v9.2Z"/>
    <path class="st1" d="M61.7,47.1l-3.8-5v5h-2.7v-11.3h2.7v4.9l3.7-4.9h3.2l-4.3,5.5,4.5,5.8h-3.3Z"/>
    <path class="st1" d="M77.7,35.9v2.2h-3v9.1h-2.7v-9.1h-3v-2.2h8.6Z"/>
    <path class="st1" d="M81.4,46.5c-.9-.5-1.6-1.2-2.1-2.1-.5-.9-.8-1.9-.8-3s.3-2.1.8-3c.5-.9,1.2-1.6,2.1-2.1s1.8-.7,2.9-.7,2,.2,2.9.7,1.6,1.2,2.1,2.1c.5.9.8,1.9.8,3s-.3,2.1-.8,3-1.2,1.6-2.1,2.1c-.9.5-1.8.7-2.9.7s-2-.2-2.9-.7ZM86.4,43.9c.5-.6.8-1.4.8-2.4s-.3-1.8-.8-2.4c-.5-.6-1.2-.9-2.1-.9s-1.6.3-2.2.9-.8,1.4-.8,2.4.3,1.8.8,2.4,1.3.9,2.2.9,1.6-.3,2.1-.9Z"/>
    <path class="st1" d="M102.9,41.3c-.3.5-.8,1-1.4,1.3s-1.4.5-2.3.5h-1.7v4h-2.7v-11.3h4.4c.9,0,1.6.2,2.3.5.6.3,1.1.7,1.4,1.3.3.5.5,1.2.5,1.9s-.1,1.3-.4,1.8ZM100.2,40.5c.3-.2.4-.6.4-1s-.1-.8-.4-1c-.3-.2-.6-.4-1.2-.4h-1.5v2.8h1.5c.5,0,.9-.1,1.2-.4Z"/>
    <path class="st1" d="M107.2,46.5c-.9-.5-1.6-1.2-2.1-2.1-.5-.9-.8-1.9-.8-3s.3-2.1.8-3c.5-.9,1.2-1.6,2.1-2.1s1.8-.7,2.9-.7,2,.2,2.9.7,1.6,1.2,2.1,2.1c.5.9.8,1.9.8,3s-.3,2.1-.8,3-1.2,1.6-2.1,2.1c-.9.5-1.8.7-2.9.7s-2-.2-2.9-.7ZM112.2,43.9c.5-.6.8-1.4.8-2.4s-.3-1.8-.8-2.4c-.5-.6-1.2-.9-2.1-.9s-1.6.3-2.2.9-.8,1.4-.8,2.4.3,1.8.8,2.4,1.3.9,2.2.9,1.6-.3,2.1-.9Z"/>
    <path class="st1" d="M132.6,35.9l-2.9,11.3h-3.3l-1.8-7.4-1.8,7.4h-3.3l-2.8-11.3h2.9l1.6,8.2,2-8.2h3l1.9,8.2,1.6-8.2h2.9Z"/>
    <path class="st1" d="M136.7,38.1v2.3h3.6v2.1h-3.6v2.5h4.1v2.2h-6.8v-11.3h6.8v2.2h-4.1Z"/>
    <path class="st1" d="M148.3,47.1l-2.3-4.3h-.7v4.3h-2.7v-11.3h4.6c.9,0,1.6.2,2.2.5.6.3,1.1.7,1.4,1.3.3.5.5,1.1.5,1.8s-.2,1.4-.6,2c-.4.6-1,1-1.9,1.3l2.6,4.5h-3.1ZM145.3,40.9h1.7c.5,0,.9-.1,1.1-.4.2-.2.4-.6.4-1s-.1-.8-.4-1c-.2-.2-.6-.4-1.1-.4h-1.7v2.8Z"/>
    <path class="st1" d="M158.2,46.9c-.6-.3-1.2-.7-1.5-1.2-.4-.5-.6-1.2-.6-1.9h2.9c0,.4.2.7.4,1,.2.2.6.3,1,.3s.7,0,1-.3c.2-.2.3-.4.3-.8s0-.5-.3-.7-.4-.3-.7-.4c-.3-.1-.7-.3-1.2-.4-.7-.2-1.3-.4-1.8-.7s-.8-.6-1.2-1c-.3-.4-.5-1-.5-1.7,0-1,.4-1.9,1.1-2.5s1.7-.9,2.9-.9,2.2.3,3,.9,1.2,1.4,1.2,2.5h-2.9c0-.4-.2-.7-.4-.9-.2-.2-.6-.3-.9-.3s-.6,0-.8.3-.3.4-.3.8.2.6.5.9c.3.2.9.4,1.6.7.7.2,1.3.5,1.8.7.5.2.8.6,1.2,1s.5,1,.5,1.7-.2,1.2-.5,1.8c-.3.5-.8.9-1.4,1.3-.6.3-1.3.5-2.2.5s-1.5-.1-2.2-.4Z"/>
    <path class="st1" d="M175.6,35.9l-3.9,7.5v3.7h-2.7v-3.7l-3.9-7.5h3.1l2.2,4.7,2.1-4.7h3Z"/>
    <path class="st1" d="M178.6,46.9c-.6-.3-1.2-.7-1.5-1.2-.4-.5-.6-1.2-.6-1.9h2.9c0,.4.2.7.4,1,.2.2.6.3,1,.3s.7,0,1-.3c.2-.2.3-.4.3-.8s0-.5-.3-.7c-.2-.2-.4-.3-.7-.4-.3-.1-.7-.3-1.2-.4-.7-.2-1.3-.4-1.8-.7-.5-.2-.8-.6-1.2-1-.3-.4-.5-1-.5-1.7,0-1,.4-1.9,1.1-2.5.8-.6,1.7-.9,2.9-.9s2.2.3,3,.9,1.2,1.4,1.2,2.5h-2.9c0-.4-.2-.7-.4-.9-.2-.2-.6-.3-.9-.3s-.6,0-.8.3-.3.4-.3.8.2.6.5.9c.3.2.9.4,1.6.7.7.2,1.3.5,1.8.7.5.2.8.6,1.2,1s.5,1,.5,1.7-.2,1.2-.5,1.8c-.3.5-.8.9-1.4,1.3-.6.3-1.3.5-2.2.5s-1.5-.1-2.2-.4Z"/>
    <path class="st1" d="M194.5,35.9v2.2h-3v9.1h-2.7v-9.1h-3v-2.2h8.6Z"/>
    <path class="st1" d="M198.6,38.1v2.3h3.6v2.1h-3.6v2.5h4.1v2.2h-6.8v-11.3h6.8v2.2h-4.1Z"/>
    <path class="st1" d="M217.1,35.9v11.3h-2.7v-6.8l-2.5,6.8h-2.2l-2.5-6.8v6.8h-2.7v-11.3h3.2l3.1,7.8,3.1-7.8h3.2Z"/>
  </g>
  <path class="st1" d="M30.7,74c3.1-5.4,7.3-9.6,12.7-12.7,5.4-3,11.4-4.5,18-4.5s14.6,2,20.5,6c5.9,4,9.9,9.5,12.3,16.6h-16.1c-1.6-3.3-3.8-5.8-6.7-7.5-2.9-1.7-6.2-2.5-10-2.5s-7.7.9-10.8,2.8c-3.2,1.9-5.6,4.6-7.4,8-1.8,3.5-2.6,7.5-2.6,12.2s.9,8.6,2.6,12.1c1.8,3.5,4.2,6.2,7.4,8.1,3.2,1.9,6.8,2.8,10.8,2.8s7.1-.8,10-2.5c2.9-1.7,5.1-4.2,6.7-7.5h16.1c-2.3,7.1-6.4,12.7-12.2,16.6-5.8,4-12.7,5.9-20.5,5.9s-12.7-1.5-18-4.5c-5.4-3-9.6-7.2-12.7-12.6-3.1-5.4-4.6-11.5-4.6-18.4s1.5-13,4.6-18.4Z"/>
  <path class="st1" d="M124.1,57.6v69.6h-14V57.6h14Z"/>
  <path class="st1" d="M217.8,57.6v69.6h-14v-45.3l-18.7,45.3h-10.6l-18.8-45.3v45.3h-14V57.6h15.9l22.2,51.8,22.1-51.8h15.8Z"/>
  <path class="st1" d="M370,127.3h-14.8l-33.6-47.8v47.8h-14.8V57.5h14.8l33.6,47.9v-47.9h14.8v69.7Z"/>
  <path class="st0" d="M288.9,81.1c-2.7-4.7-6.5-8.4-11.2-11-.9-.5-1.8-1-2.8-1.4v13.2c1.3,1.3,2.4,2.7,3.3,4.5,1.6,3,2.3,6.6,2.3,10.6s-.8,7.6-2.3,10.6c-1.6,3.1-3.7,5.4-6.5,7.1-2.8,1.6-6,2.5-9.6,2.5s-6.9-.8-9.6-2.5c-2.8-1.6-5-4-6.5-7.1-1.6-3.1-2.3-6.6-2.3-10.6s.8-7.6,2.3-10.6c.9-1.7,2-3.2,3.3-4.4v-13.2c-.9.4-1.8.8-2.7,1.3-4.7,2.7-8.5,6.3-11.2,11-2.8,4.7-4.2,10-4.2,15.9s1.4,11.3,4.2,16c2.8,4.7,6.5,8.4,11.2,11,4.7,2.7,9.9,4,15.6,4s10.8-1.3,15.6-4c4.7-2.7,8.5-6.3,11.2-11,2.7-4.7,4.1-10,4.1-16s-1.4-11.2-4.1-15.9Z"/>
  <rect class="st0" x="255.6" y="57.8" width="12.6" height="32.1"/>
</svg>