<?xml version="1.0" encoding="UTF-8"?>
<svg id="Layer_1" xmlns="http://www.w3.org/2000/svg" version="1.1" viewBox="0 0 395.4 192">
  <!-- Generator: Adobe Illustrator 29.4.0, SVG Export Plug-In . SVG Version: 2.1.0 Build 152)  -->
  <defs>
    <style>
      .st0 {
        fill: #210f61;
      }

      .st1 {
        fill: #fff;
      }

      .st2 {
        fill: #de367d;
      }
    </style>
  </defs>
  <path class="st0" d="M33.4,74.5c3.1-5.4,7.3-9.6,12.7-12.7,5.4-3,11.4-4.5,18-4.5s14.6,2,20.5,6c5.9,4,9.9,9.5,12.3,16.6h-16.1c-1.6-3.3-3.8-5.8-6.7-7.5-2.9-1.7-6.2-2.5-10-2.5s-7.7.9-10.8,2.8c-3.2,1.9-5.6,4.6-7.4,8-1.8,3.5-2.6,7.5-2.6,12.2s.9,8.6,2.6,12.1c1.8,3.5,4.2,6.2,7.4,8.1,3.2,1.9,6.8,2.8,10.8,2.8s7.1-.8,10-2.5c2.9-1.7,5.1-4.2,6.7-7.5h16.1c-2.3,7.1-6.4,12.7-12.2,16.6-5.8,4-12.7,5.9-20.5,5.9s-12.7-1.5-18-4.5c-5.4-3-9.6-7.2-12.7-12.6-3.1-5.4-4.6-11.5-4.6-18.4s1.5-13,4.6-18.4Z"/>
  <path class="st0" d="M126.8,58.2v69.6h-14V58.2h14Z"/>
  <path class="st0" d="M220.4,58.2v69.6h-14v-45.3l-18.7,45.3h-10.6l-18.8-45.3v45.3h-14V58.2h15.9l22.2,51.8,22.1-51.8h15.8Z"/>
  <path class="st0" d="M369,127.9h-14l-31.6-47.8v47.8h-14V58.1h14l31.6,47.9v-47.9h14v69.7Z"/>
  <path class="st2" d="M291.6,81.7c-2.7-4.7-6.5-8.4-11.2-11-.9-.5-1.8-1-2.8-1.4v13.2c1.3,1.3,2.4,2.7,3.3,4.5,1.6,3,2.3,6.6,2.3,10.6s-.8,7.6-2.3,10.6c-1.6,3.1-3.7,5.4-6.5,7.1-2.8,1.6-6,2.5-9.6,2.5s-6.9-.8-9.6-2.5c-2.8-1.6-5-4-6.5-7.1-1.6-3.1-2.3-6.6-2.3-10.6s.8-7.6,2.3-10.6c.9-1.7,2-3.2,3.3-4.4v-13.2c-.9.4-1.8.8-2.7,1.3-4.7,2.7-8.5,6.3-11.2,11-2.8,4.7-4.2,10-4.2,15.9s1.4,11.3,4.2,16c2.8,4.7,6.5,8.4,11.2,11,4.7,2.7,9.9,4,15.6,4s10.8-1.3,15.6-4c4.7-2.7,8.5-6.3,11.2-11,2.7-4.7,4.1-10,4.1-16s-1.4-11.2-4.1-15.9Z"/>
  <rect class="st2" x="258.3" y="58.4" width="12.6" height="32.1"/>
  <g>
    <path class="st0" d="M38.3,36.1v1.7h-3.3v11h-2.1v-11h-3.4v-1.7h8.8Z"/>
    <path class="st0" d="M40.3,41c.4-.8,1-1.4,1.7-1.8.7-.4,1.5-.6,2.4-.6s1.5.2,2.1.5,1.1.7,1.4,1.2v-1.5h2.1v10.1h-2.1v-1.5c-.4.5-.8.9-1.4,1.2-.6.3-1.3.5-2.1.5s-1.6-.2-2.4-.7c-.7-.4-1.3-1.1-1.7-1.9-.4-.8-.6-1.7-.6-2.7s.2-1.9.6-2.7ZM47.4,41.9c-.3-.5-.7-.9-1.1-1.2-.5-.3-1-.4-1.5-.4s-1,.1-1.5.4c-.5.3-.8.6-1.1,1.2-.3.5-.4,1.1-.4,1.8s.1,1.3.4,1.8c.3.5.7.9,1.1,1.2.5.3,1,.4,1.5.4s1-.1,1.5-.4c.5-.3.8-.7,1.1-1.2.3-.5.4-1.1.4-1.8s-.1-1.3-.4-1.8Z"/>
    <path class="st0" d="M54.7,35.2v13.5h-2.1v-13.5h2.1Z"/>
    <path class="st0" d="M61.3,43.7l4.6,5h-2.8l-3.7-4.3v4.3h-2.1v-13.5h2.1v7.9l3.6-4.4h2.9l-4.6,5.1Z"/>
    <path class="st0" d="M74.5,40.4v5.6c0,.4,0,.6.3.8.2.2.5.2.9.2h1.3v1.7h-1.6c-.9,0-1.6-.2-2.1-.7-.5-.4-.7-1.2-.7-2.1v-5.6h-1.2v-1.7h1.2v-2.5h2.1v2.5h2.4v1.7h-2.4Z"/>
    <path class="st0" d="M80.6,48.3c-.8-.4-1.4-1-1.8-1.8s-.7-1.7-.7-2.7.2-1.9.7-2.7c.4-.8,1.1-1.4,1.8-1.8.8-.4,1.6-.6,2.6-.6s1.8.2,2.6.6c.8.4,1.4,1,1.8,1.8.4.8.7,1.7.7,2.7s-.2,1.9-.7,2.7c-.5.8-1.1,1.4-1.9,1.8-.8.4-1.7.6-2.6.6s-1.8-.2-2.6-.6ZM84.7,46.7c.5-.3.8-.6,1.1-1.2.3-.5.4-1.1.4-1.9s-.1-1.4-.4-1.9c-.3-.5-.6-.9-1.1-1.1-.5-.3-1-.4-1.5-.4s-1,.1-1.5.4c-.5.3-.8.6-1.1,1.1-.3.5-.4,1.1-.4,1.9,0,1.1.3,1.9.8,2.5s1.2.9,2.1.9,1-.1,1.5-.4Z"/>
    <path class="st0" d="M103.5,41.7c-.3.6-.8,1-1.4,1.4-.7.4-1.5.5-2.6.5h-2.3v5.2h-2.1v-12.7h4.3c1,0,1.8.2,2.5.5.7.3,1.2.8,1.5,1.4.3.6.5,1.2.5,1.9s-.2,1.3-.5,1.8ZM101.2,41.4c.4-.4.6-.9.6-1.5,0-1.4-.8-2.1-2.3-2.1h-2.3v4.2h2.3c.8,0,1.4-.2,1.8-.5Z"/>
    <path class="st0" d="M107.7,48.3c-.8-.4-1.4-1-1.8-1.8s-.7-1.7-.7-2.7.2-1.9.7-2.7c.4-.8,1.1-1.4,1.8-1.8.8-.4,1.6-.6,2.6-.6s1.8.2,2.6.6c.8.4,1.4,1,1.8,1.8.4.8.7,1.7.7,2.7s-.2,1.9-.7,2.7c-.5.8-1.1,1.4-1.9,1.8-.8.4-1.7.6-2.6.6s-1.8-.2-2.6-.6ZM111.7,46.7c.5-.3.8-.6,1.1-1.2.3-.5.4-1.1.4-1.9s-.1-1.4-.4-1.9c-.3-.5-.6-.9-1.1-1.1-.5-.3-1-.4-1.5-.4s-1,.1-1.5.4c-.5.3-.8.6-1.1,1.1-.3.5-.4,1.1-.4,1.9,0,1.1.3,1.9.8,2.5s1.2.9,2.1.9,1-.1,1.5-.4Z"/>
    <path class="st0" d="M130.9,38.7l-3.1,10.1h-2.2l-2-7.4-2,7.4h-2.2l-3.1-10.1h2.1l2.1,8.1,2.1-8.1h2.2l2,8.1,2.1-8.1h2Z"/>
    <path class="st0" d="M141.5,44.5h-7.6c0,.8.4,1.5.9,1.9.5.5,1.2.7,2,.7,1.1,0,1.9-.5,2.4-1.4h2.2c-.3.9-.8,1.7-1.6,2.3-.8.6-1.8.9-2.9.9s-1.8-.2-2.6-.6-1.3-1-1.8-1.8c-.4-.8-.6-1.7-.6-2.7s.2-1.9.6-2.7,1-1.4,1.8-1.8c.8-.4,1.6-.6,2.6-.6s1.8.2,2.5.6c.7.4,1.3,1,1.7,1.7.4.8.6,1.6.6,2.6s0,.7,0,1ZM139.4,42.8c0-.8-.3-1.4-.8-1.8-.5-.5-1.2-.7-2-.7s-1.3.2-1.8.7c-.5.5-.8,1.1-.9,1.9h5.5Z"/>
    <path class="st0" d="M146.8,39c.5-.3,1.1-.4,1.8-.4v2.2h-.5c-.8,0-1.4.2-1.8.6-.4.4-.6,1.1-.6,2.2v5.3h-2.1v-10.1h2.1v1.5c.3-.5.7-.9,1.2-1.2Z"/>
    <path class="st0" d="M157.1,48.5c-.7-.3-1.2-.7-1.6-1.3-.4-.5-.6-1.2-.6-1.9h2.2c0,.5.3,1,.6,1.4.4.4.9.5,1.6.5s1.3-.2,1.7-.5c.4-.3.6-.8.6-1.3s-.1-.8-.4-1c-.2-.3-.6-.5-.9-.6-.4-.1-.9-.3-1.5-.5-.8-.2-1.5-.4-2-.7-.5-.2-1-.6-1.3-1.1-.4-.5-.5-1.1-.5-1.9s.2-1.4.5-1.9c.4-.5.9-1,1.5-1.3.7-.3,1.4-.4,2.3-.4,1.2,0,2.2.3,3,.9.8.6,1.2,1.5,1.3,2.5h-2.3c0-.5-.3-.9-.7-1.2-.4-.3-.9-.5-1.6-.5s-1.1.2-1.4.5c-.4.3-.6.7-.6,1.3s.1.7.4,1c.2.3.5.4.9.6.4.1.9.3,1.5.5.8.2,1.5.5,2,.7.5.2,1,.6,1.3,1.1.4.5.6,1.1.6,1.9s-.2,1.3-.5,1.8c-.3.6-.8,1-1.5,1.4-.7.3-1.4.5-2.3.5s-1.6-.1-2.3-.4Z"/>
    <path class="st0" d="M175.1,38.7l-6.1,14.8h-2.1l2-4.9-3.9-9.9h2.3l2.8,7.7,2.9-7.7h2.1Z"/>
    <path class="st0" d="M178.2,48.5c-.6-.3-1.1-.7-1.5-1.2-.4-.5-.6-1-.6-1.7h2.1c0,.4.2.8.6,1.1s.8.4,1.4.4,1-.1,1.3-.3c.3-.2.5-.5.5-.9s-.2-.7-.5-.8c-.4-.2-.9-.4-1.7-.6-.7-.2-1.4-.4-1.8-.6s-.9-.5-1.2-.9c-.3-.4-.5-.9-.5-1.6s.2-1,.5-1.5.8-.8,1.3-1.1c.6-.3,1.3-.4,2-.4,1.1,0,2,.3,2.7.9.7.6,1.1,1.4,1.1,2.4h-2.1c0-.5-.2-.8-.5-1.1-.3-.3-.8-.4-1.3-.4s-1,.1-1.2.3c-.3.2-.4.5-.4.8s0,.5.3.7c.2.2.4.3.7.4.3.1.7.2,1.2.4.7.2,1.3.4,1.8.6.5.2.9.5,1.2.9.3.4.5.9.5,1.6,0,.6-.2,1.1-.5,1.5-.3.5-.8.8-1.3,1.1s-1.2.4-2,.4-1.5-.1-2.1-.4Z"/>
    <path class="st0" d="M188.8,40.4v5.6c0,.4,0,.6.3.8.2.2.5.2.9.2h1.3v1.7h-1.6c-.9,0-1.6-.2-2.1-.7-.5-.4-.7-1.2-.7-2.1v-5.6h-1.2v-1.7h1.2v-2.5h2.1v2.5h2.4v1.7h-2.4Z"/>
    <path class="st0" d="M202.2,44.5h-7.6c0,.8.4,1.5.9,1.9.5.5,1.2.7,2,.7,1.1,0,1.9-.5,2.4-1.4h2.2c-.3.9-.8,1.7-1.6,2.3-.8.6-1.8.9-2.9.9s-1.8-.2-2.6-.6-1.3-1-1.8-1.8c-.4-.8-.6-1.7-.6-2.7s.2-1.9.6-2.7,1-1.4,1.8-1.8c.8-.4,1.6-.6,2.6-.6s1.8.2,2.5.6c.7.4,1.3,1,1.7,1.7.4.8.6,1.6.6,2.6s0,.7,0,1ZM200.1,42.8c0-.8-.3-1.4-.8-1.8-.5-.5-1.2-.7-2-.7s-1.3.2-1.8.7c-.5.5-.8,1.1-.9,1.9h5.5Z"/>
    <path class="st0" d="M218.5,39c.6.3,1.1.8,1.5,1.5.4.6.5,1.4.5,2.3v5.9h-2v-5.6c0-.9-.2-1.6-.7-2.1-.4-.5-1.1-.7-1.8-.7s-1.4.2-1.8.7c-.5.5-.7,1.2-.7,2.1v5.6h-2v-5.6c0-.9-.2-1.6-.7-2.1-.4-.5-1.1-.7-1.8-.7s-1.4.2-1.8.7c-.5.5-.7,1.2-.7,2.1v5.6h-2.1v-10.1h2.1v1.2c.3-.4.8-.7,1.3-1,.5-.2,1.1-.3,1.7-.3s1.5.2,2.1.5,1.1.8,1.4,1.5c.3-.6.8-1.1,1.4-1.5.6-.4,1.3-.5,2.1-.5s1.5.2,2.1.5Z"/>
  </g>
  <rect class="st2" x="206.6" y="139" width="162" height="26.5"/>
  <g>
    <path class="st1" d="M215,148.6c.6-1.1,1.4-1.9,2.5-2.5,1.1-.6,2.2-.9,3.5-.9s2.9.4,4,1.2c1.2.8,2,1.9,2.4,3.3h-3.2c-.3-.7-.8-1.1-1.3-1.5-.6-.3-1.2-.5-2-.5s-1.5.2-2.1.6c-.6.4-1.1.9-1.5,1.6-.3.7-.5,1.5-.5,2.4s.2,1.7.5,2.4c.3.7.8,1.2,1.5,1.6.6.4,1.3.6,2.1.6s1.4-.2,2-.5,1-.8,1.3-1.5h3.2c-.5,1.4-1.3,2.5-2.4,3.3-1.1.8-2.5,1.2-4,1.2s-2.5-.3-3.5-.9-1.9-1.4-2.5-2.5c-.6-1.1-.9-2.3-.9-3.6s.3-2.6.9-3.6Z"/>
    <path class="st1" d="M233.5,158.4c-1.1-.6-1.9-1.4-2.6-2.5-.6-1.1-.9-2.3-.9-3.6s.3-2.5.9-3.6c.6-1.1,1.5-1.9,2.6-2.5,1.1-.6,2.3-.9,3.5-.9s2.5.3,3.5.9c1.1.6,1.9,1.4,2.5,2.5.6,1.1.9,2.3.9,3.6s-.3,2.6-.9,3.6-1.5,1.9-2.5,2.5c-1.1.6-2.3.9-3.5.9s-2.5-.3-3.5-.9ZM239.2,156.3c.6-.4,1.1-.9,1.5-1.6.4-.7.5-1.5.5-2.4s-.2-1.7-.5-2.4-.8-1.2-1.5-1.6c-.6-.4-1.4-.6-2.2-.6s-1.6.2-2.2.6c-.6.4-1.1.9-1.5,1.6s-.5,1.5-.5,2.4.2,1.7.5,2.4c.4.7.8,1.2,1.5,1.6.6.4,1.4.6,2.2.6s1.6-.2,2.2-.6Z"/>
    <path class="st1" d="M258.6,159.1h-2.8l-6.2-9.4v9.4h-2.8v-13.7h2.8l6.2,9.4v-9.4h2.8v13.7Z"/>
    <path class="st1" d="M270.6,145.4v2.2h-5.7v3.5h4.4v2.2h-4.4v5.8h-2.8v-13.7h8.5Z"/>
    <path class="st1" d="M276.1,145.4v13.7h-2.8v-13.7h2.8Z"/>
    <path class="st1" d="M288.1,146.3c1.1.6,1.9,1.4,2.5,2.4.6,1,.9,2.2.9,3.6s-.3,2.6-.9,3.6c-.6,1-1.4,1.8-2.5,2.4-1.1.6-2.4.8-3.8.8h-4.8v-13.7h4.8c1.4,0,2.7.3,3.8.8ZM287.6,155.6c.8-.8,1.2-1.9,1.2-3.3s-.4-2.5-1.2-3.4c-.8-.8-1.9-1.2-3.3-1.2h-1.9v9.1h1.9c1.4,0,2.6-.4,3.3-1.2Z"/>
    <path class="st1" d="M297.2,147.7v3.4h4.6v2.2h-4.6v3.6h5.2v2.2h-8v-13.7h8v2.2h-5.2Z"/>
    <path class="st1" d="M317.4,159.1h-2.8l-6.2-9.4v9.4h-2.8v-13.7h2.8l6.2,9.4v-9.4h2.8v13.7Z"/>
    <path class="st1" d="M330.2,145.4v2.2h-3.7v11.5h-2.8v-11.5h-3.7v-2.2h10.1Z"/>
    <path class="st1" d="M335.8,145.4v13.7h-2.8v-13.7h2.8Z"/>
    <path class="st1" d="M347.7,156.5h-5.5l-.9,2.6h-2.9l4.9-13.7h3.2l4.9,13.7h-2.9l-.9-2.6ZM346.9,154.3l-2-5.7-2,5.7h4Z"/>
    <path class="st1" d="M356.9,157h4.5v2.2h-7.3v-13.7h2.8v11.5Z"/>
  </g>
</svg>