<?xml version="1.0" encoding="UTF-8"?>
<svg id="Layer_1" xmlns="http://www.w3.org/2000/svg" version="1.1" viewBox="0 0 395.4 192">
  <!-- Generator: Adobe Illustrator 29.4.0, SVG Export Plug-In . SVG Version: 2.1.0 Build 152)  -->
  <defs>
    <style>
      .st0 {
        fill: #210f61;
      }

      .st1 {
        fill: #fff;
      }

      .st2 {
        fill: #de367d;
      }
    </style>
  </defs>
  <path class="st0" d="M28.9,73.8c3.1-5.4,7.3-9.6,12.7-12.7,5.4-3,11.4-4.5,18-4.5s14.6,2,20.5,6c5.9,4,9.9,9.5,12.3,16.6h-16.1c-1.6-3.3-3.8-5.8-6.7-7.5-2.9-1.7-6.2-2.5-10-2.5s-7.7.9-10.8,2.8c-3.2,1.9-5.6,4.6-7.4,8-1.8,3.5-2.6,7.5-2.6,12.2s.9,8.6,2.6,12.1c1.8,3.5,4.2,6.2,7.4,8.1,3.2,1.9,6.8,2.8,10.8,2.8s7.1-.8,10-2.5c2.9-1.7,5.1-4.2,6.7-7.5h16.1c-2.3,7.1-6.4,12.7-12.2,16.6-5.8,4-12.7,5.9-20.5,5.9s-12.7-1.5-18-4.5c-5.4-3-9.6-7.2-12.7-12.6-3.1-5.4-4.6-11.5-4.6-18.4s1.5-13,4.6-18.4Z"/>
  <path class="st0" d="M122.2,57.5v69.6h-14V57.5h14Z"/>
  <path class="st0" d="M215.9,57.5v69.6h-14v-45.3l-18.7,45.3h-10.6l-18.8-45.3v45.3h-14V57.5h15.9l22.2,51.8,22.1-51.8h15.8Z"/>
  <path class="st0" d="M364.5,127.1h-14l-31.6-47.8v47.8h-14V57.4h14l31.6,47.9v-47.9h14v69.7Z"/>
  <path class="st2" d="M287,81c-2.7-4.7-6.5-8.4-11.2-11-.9-.5-1.8-1-2.8-1.4v13.2c1.3,1.3,2.4,2.7,3.3,4.5,1.6,3,2.3,6.6,2.3,10.6s-.8,7.6-2.3,10.6c-1.6,3.1-3.7,5.4-6.5,7.1-2.8,1.6-6,2.5-9.6,2.5s-6.9-.8-9.6-2.5c-2.8-1.6-5-4-6.5-7.1-1.6-3.1-2.3-6.6-2.3-10.6s.8-7.6,2.3-10.6c.9-1.7,2-3.2,3.3-4.4v-13.2c-.9.4-1.8.8-2.7,1.3-4.7,2.7-8.5,6.3-11.2,11-2.8,4.7-4.2,10-4.2,15.9s1.4,11.3,4.2,16c2.8,4.7,6.5,8.4,11.2,11,4.7,2.7,9.9,4,15.6,4s10.8-1.3,15.6-4c4.7-2.7,8.5-6.3,11.2-11,2.7-4.7,4.1-10,4.1-16s-1.4-11.2-4.1-15.9Z"/>
  <rect class="st2" x="253.8" y="57.6" width="12.6" height="32.1"/>
  <g>
    <path class="st0" d="M33.2,35.7v2.2h-3v9.1h-2.7v-9.1h-3v-2.2h8.6Z"/>
    <path class="st0" d="M41.5,45h-4.2l-.7,2h-2.8l4-11.3h3.1l4,11.3h-2.9l-.7-2ZM40.8,42.9l-1.4-4.1-1.4,4.1h2.7Z"/>
    <path class="st0" d="M49,44.8h3.6v2.1h-6.3v-11.3h2.7v9.2Z"/>
    <path class="st0" d="M60.4,47l-3.7-5v5h-2.7v-11.3h2.7v4.9l3.7-4.9h3.2l-4.3,5.5,4.5,5.8h-3.3Z"/>
    <path class="st0" d="M76.4,35.7v2.2h-3v9.1h-2.7v-9.1h-3v-2.2h8.6Z"/>
    <path class="st0" d="M80.1,46.3c-.9-.5-1.6-1.2-2.1-2.1-.5-.9-.8-1.9-.8-3s.3-2.1.8-3c.5-.9,1.2-1.6,2.1-2.1.9-.5,1.8-.7,2.9-.7s2,.2,2.9.7c.9.5,1.6,1.2,2.1,2.1.5.9.8,1.9.8,3s-.3,2.1-.8,3c-.5.9-1.2,1.6-2.1,2.1-.9.5-1.8.7-2.9.7s-2-.2-2.9-.7ZM85.1,43.7c.5-.6.8-1.4.8-2.4s-.3-1.8-.8-2.4c-.5-.6-1.2-.9-2.1-.9s-1.6.3-2.2.9c-.5.6-.8,1.4-.8,2.4s.3,1.8.8,2.4c.5.6,1.3.9,2.2.9s1.6-.3,2.1-.9Z"/>
    <path class="st0" d="M101.6,41.1c-.3.5-.8,1-1.4,1.3s-1.4.5-2.3.5h-1.7v4h-2.7v-11.3h4.4c.9,0,1.6.2,2.3.5.6.3,1.1.7,1.4,1.3.3.5.5,1.2.5,1.9s-.1,1.3-.4,1.8ZM98.9,40.4c.3-.2.4-.6.4-1s-.1-.8-.4-1c-.3-.2-.6-.4-1.2-.4h-1.5v2.8h1.5c.5,0,.9-.1,1.2-.4Z"/>
    <path class="st0" d="M105.9,46.3c-.9-.5-1.6-1.2-2.1-2.1-.5-.9-.8-1.9-.8-3s.3-2.1.8-3c.5-.9,1.2-1.6,2.1-2.1.9-.5,1.8-.7,2.9-.7s2,.2,2.9.7c.9.5,1.6,1.2,2.1,2.1.5.9.8,1.9.8,3s-.3,2.1-.8,3c-.5.9-1.2,1.6-2.1,2.1-.9.5-1.8.7-2.9.7s-2-.2-2.9-.7ZM110.9,43.7c.5-.6.8-1.4.8-2.4s-.3-1.8-.8-2.4c-.5-.6-1.2-.9-2.1-.9s-1.6.3-2.2.9c-.5.6-.8,1.4-.8,2.4s.3,1.8.8,2.4c.5.6,1.3.9,2.2.9s1.6-.3,2.1-.9Z"/>
    <path class="st0" d="M131.3,35.7l-2.9,11.3h-3.3l-1.8-7.4-1.8,7.4h-3.3l-2.8-11.3h2.9l1.6,8.2,2-8.2h3l1.9,8.2,1.6-8.2h2.9Z"/>
    <path class="st0" d="M135.4,37.9v2.3h3.6v2.1h-3.6v2.5h4.1v2.2h-6.8v-11.3h6.8v2.2h-4.1Z"/>
    <path class="st0" d="M147,47l-2.3-4.3h-.7v4.3h-2.7v-11.3h4.6c.9,0,1.6.2,2.2.5.6.3,1.1.7,1.4,1.3s.5,1.1.5,1.8-.2,1.4-.6,2c-.4.6-1,1-1.9,1.3l2.6,4.5h-3.1ZM144,40.8h1.7c.5,0,.9-.1,1.1-.4.2-.2.4-.6.4-1s-.1-.8-.4-1c-.2-.2-.6-.4-1.1-.4h-1.7v2.8Z"/>
    <path class="st0" d="M156.9,46.7c-.6-.3-1.2-.7-1.5-1.2-.4-.5-.6-1.2-.6-1.9h2.9c0,.4.2.7.4,1,.2.2.6.3,1,.3s.7,0,1-.3c.2-.2.3-.4.3-.8s0-.5-.3-.7c-.2-.2-.4-.3-.7-.4-.3-.1-.7-.3-1.2-.4-.7-.2-1.3-.4-1.8-.7-.5-.2-.8-.6-1.2-1-.3-.4-.5-1-.5-1.7,0-1,.4-1.9,1.1-2.5.8-.6,1.7-.9,2.9-.9s2.2.3,3,.9,1.2,1.4,1.2,2.5h-2.9c0-.4-.2-.7-.4-.9-.2-.2-.6-.3-.9-.3s-.6,0-.8.3-.3.4-.3.8.2.6.5.9c.3.2.9.4,1.6.7.7.2,1.3.5,1.8.7.5.2.8.6,1.2,1s.5,1,.5,1.7-.2,1.2-.5,1.8c-.3.5-.8.9-1.4,1.3-.6.3-1.3.5-2.2.5s-1.5-.1-2.2-.4Z"/>
    <path class="st0" d="M174.3,35.7l-3.9,7.5v3.7h-2.7v-3.7l-3.9-7.5h3.1l2.2,4.7,2.1-4.7h3.1Z"/>
    <path class="st0" d="M177.3,46.7c-.6-.3-1.2-.7-1.5-1.2-.4-.5-.6-1.2-.6-1.9h2.9c0,.4.2.7.4,1,.2.2.6.3,1,.3s.7,0,1-.3c.2-.2.3-.4.3-.8s0-.5-.3-.7c-.2-.2-.4-.3-.7-.4-.3-.1-.7-.3-1.2-.4-.7-.2-1.3-.4-1.8-.7-.5-.2-.8-.6-1.2-1-.3-.4-.5-1-.5-1.7,0-1,.4-1.9,1.1-2.5.8-.6,1.7-.9,2.9-.9s2.2.3,3,.9,1.2,1.4,1.2,2.5h-2.9c0-.4-.2-.7-.4-.9-.2-.2-.6-.3-.9-.3s-.6,0-.8.3-.3.4-.3.8.2.6.5.9c.3.2.9.4,1.6.7.7.2,1.3.5,1.8.7.5.2.8.6,1.2,1s.5,1,.5,1.7-.2,1.2-.5,1.8c-.3.5-.8.9-1.4,1.3-.6.3-1.3.5-2.2.5s-1.5-.1-2.2-.4Z"/>
    <path class="st0" d="M193.2,35.7v2.2h-3v9.1h-2.7v-9.1h-3v-2.2h8.6Z"/>
    <path class="st0" d="M197.3,37.9v2.3h3.6v2.1h-3.6v2.5h4.1v2.2h-6.8v-11.3h6.8v2.2h-4.1Z"/>
    <path class="st0" d="M215.8,35.7v11.3h-2.7v-6.8l-2.5,6.8h-2.2l-2.5-6.8v6.8h-2.7v-11.3h3.2l3.1,7.8,3.1-7.8h3.2Z"/>
  </g>
  <rect class="st2" x="202.1" y="138.3" width="162" height="26.5"/>
  <g>
    <path class="st1" d="M210.5,147.9c.6-1.1,1.4-1.9,2.5-2.5,1.1-.6,2.2-.9,3.5-.9s2.9.4,4,1.2c1.2.8,2,1.9,2.4,3.3h-3.2c-.3-.7-.8-1.1-1.3-1.5-.6-.3-1.2-.5-2-.5s-1.5.2-2.1.6c-.6.4-1.1.9-1.5,1.6-.3.7-.5,1.5-.5,2.4s.2,1.7.5,2.4c.3.7.8,1.2,1.5,1.6.6.4,1.3.6,2.1.6s1.4-.2,2-.5,1-.8,1.3-1.5h3.2c-.5,1.4-1.3,2.5-2.4,3.3-1.1.8-2.5,1.2-4,1.2s-2.5-.3-3.5-.9-1.9-1.4-2.5-2.5c-.6-1.1-.9-2.3-.9-3.6s.3-2.6.9-3.6Z"/>
    <path class="st1" d="M228.9,157.6c-1.1-.6-1.9-1.4-2.6-2.5-.6-1.1-.9-2.3-.9-3.6s.3-2.5.9-3.6c.6-1.1,1.5-1.9,2.6-2.5,1.1-.6,2.3-.9,3.5-.9s2.5.3,3.5.9c1.1.6,1.9,1.4,2.5,2.5.6,1.1.9,2.3.9,3.6s-.3,2.6-.9,3.6-1.5,1.9-2.5,2.5c-1.1.6-2.3.9-3.5.9s-2.5-.3-3.5-.9ZM234.7,155.5c.6-.4,1.1-.9,1.5-1.6.4-.7.5-1.5.5-2.4s-.2-1.7-.5-2.4-.8-1.2-1.5-1.6c-.6-.4-1.4-.6-2.2-.6s-1.6.2-2.2.6c-.6.4-1.1.9-1.5,1.6s-.5,1.5-.5,2.4.2,1.7.5,2.4c.4.7.8,1.2,1.5,1.6.6.4,1.4.6,2.2.6s1.6-.2,2.2-.6Z"/>
    <path class="st1" d="M254.1,158.4h-2.8l-6.2-9.4v9.4h-2.8v-13.7h2.8l6.2,9.4v-9.4h2.8v13.7Z"/>
    <path class="st1" d="M266,144.7v2.2h-5.7v3.5h4.4v2.2h-4.4v5.8h-2.8v-13.7h8.5Z"/>
    <path class="st1" d="M271.5,144.7v13.7h-2.8v-13.7h2.8Z"/>
    <path class="st1" d="M283.6,145.5c1.1.6,1.9,1.4,2.5,2.4.6,1,.9,2.2.9,3.6s-.3,2.6-.9,3.6c-.6,1-1.4,1.8-2.5,2.4-1.1.6-2.4.8-3.8.8h-4.8v-13.7h4.8c1.4,0,2.7.3,3.8.8ZM283,154.9c.8-.8,1.2-1.9,1.2-3.3s-.4-2.5-1.2-3.4c-.8-.8-1.9-1.2-3.3-1.2h-1.9v9.1h1.9c1.4,0,2.6-.4,3.3-1.2Z"/>
    <path class="st1" d="M292.6,146.9v3.4h4.6v2.2h-4.6v3.6h5.2v2.2h-8v-13.7h8v2.2h-5.2Z"/>
    <path class="st1" d="M312.8,158.4h-2.8l-6.2-9.4v9.4h-2.8v-13.7h2.8l6.2,9.4v-9.4h2.8v13.7Z"/>
    <path class="st1" d="M325.7,144.7v2.2h-3.7v11.5h-2.8v-11.5h-3.7v-2.2h10.1Z"/>
    <path class="st1" d="M331.2,144.7v13.7h-2.8v-13.7h2.8Z"/>
    <path class="st1" d="M343.1,155.8h-5.5l-.9,2.6h-2.9l4.9-13.7h3.2l4.9,13.7h-2.9l-.9-2.6ZM342.4,153.6l-2-5.7-2,5.7h4Z"/>
    <path class="st1" d="M352.3,156.2h4.5v2.2h-7.3v-13.7h2.8v11.5Z"/>
  </g>
</svg>