<?xml version="1.0" encoding="UTF-8"?>
<svg id="Layer_1" xmlns="http://www.w3.org/2000/svg" version="1.1" viewBox="0 0 395.4 192">
  <!-- Generator: Adobe Illustrator 29.4.0, SVG Export Plug-In . SVG Version: 2.1.0 Build 152)  -->
  <defs>
    <style>
      .st0 {
        fill: #210f61;
      }

      .st1 {
        fill: #fff;
      }

      .st2 {
        fill: #de367d;
      }
    </style>
  </defs>
  <path class="st0" d="M29.9,61.4c3.1-5.4,7.3-9.6,12.7-12.7,5.4-3,11.4-4.5,18-4.5s14.6,2,20.5,6c5.9,4,9.9,9.5,12.3,16.6h-16.1c-1.6-3.3-3.8-5.8-6.7-7.5-2.9-1.7-6.2-2.5-10-2.5s-7.7.9-10.8,2.8c-3.2,1.9-5.6,4.6-7.4,8-1.8,3.5-2.6,7.5-2.6,12.2s.9,8.6,2.6,12.1c1.8,3.5,4.2,6.2,7.4,8.1,3.2,1.9,6.8,2.8,10.8,2.8s7.1-.8,10-2.5c2.9-1.7,5.1-4.2,6.7-7.5h16.1c-2.3,7.1-6.4,12.7-12.2,16.6-5.8,4-12.7,5.9-20.5,5.9s-12.7-1.5-18-4.5c-5.4-3-9.6-7.2-12.7-12.6-3.1-5.4-4.6-11.5-4.6-18.4s1.5-13,4.6-18.4Z"/>
  <path class="st0" d="M123.2,45.1v69.6h-14V45.1h14Z"/>
  <path class="st0" d="M216.9,45.1v69.6h-14v-45.3l-18.7,45.3h-10.6l-18.8-45.3v45.3h-14V45.1h15.9l22.2,51.8,22.1-51.8h15.8Z"/>
  <path class="st0" d="M365.5,114.7h-14l-31.6-47.8v47.8h-14V45h14l31.6,47.9v-47.9h14v69.7Z"/>
  <path class="st2" d="M288,68.6c-2.7-4.7-6.5-8.4-11.2-11-.9-.5-1.8-1-2.8-1.4v13.2c1.3,1.3,2.4,2.7,3.3,4.5,1.6,3,2.3,6.6,2.3,10.6s-.8,7.6-2.3,10.6c-1.6,3.1-3.7,5.4-6.5,7.1-2.8,1.6-6,2.5-9.6,2.5s-6.9-.8-9.6-2.5c-2.8-1.6-5-4-6.5-7.1-1.6-3.1-2.3-6.6-2.3-10.6s.8-7.6,2.3-10.6c.9-1.7,2-3.2,3.3-4.4v-13.2c-.9.4-1.8.8-2.7,1.3-4.7,2.7-8.5,6.3-11.2,11-2.8,4.7-4.2,10-4.2,15.9s1.4,11.3,4.2,16c2.8,4.7,6.5,8.4,11.2,11,4.7,2.7,9.9,4,15.6,4s10.8-1.3,15.6-4c4.7-2.7,8.5-6.3,11.2-11,2.7-4.7,4.1-10,4.1-16s-1.4-11.2-4.1-15.9Z"/>
  <rect class="st2" x="254.8" y="44.7" width="12.6" height="32.6"/>
  <g>
    <path class="st0" d="M237.2,122.5v1.2h-2.4v7.8h-1.5v-7.8h-2.4v-1.2h6.2Z"/>
    <path class="st0" d="M238.6,126c.3-.5.7-1,1.2-1.3.5-.3,1.1-.5,1.7-.5s1,.1,1.4.3c.4.2.7.5,1,.8v-1h1.5v7.1h-1.5v-1.1c-.2.3-.6.6-1,.8-.4.2-.9.3-1.5.3s-1.2-.2-1.7-.5c-.5-.3-.9-.8-1.2-1.3-.3-.6-.4-1.2-.4-1.9s.1-1.3.4-1.9ZM243.6,126.6c-.2-.4-.5-.6-.8-.8-.3-.2-.7-.3-1-.3s-.7,0-1,.3c-.3.2-.6.5-.8.8-.2.4-.3.8-.3,1.3s.1.9.3,1.3.5.7.8.8.7.3,1,.3.7,0,1-.3c.3-.2.6-.5.8-.8.2-.4.3-.8.3-1.3s-.1-.9-.3-1.3Z"/>
    <path class="st0" d="M248.7,121.9v9.5h-1.5v-9.5h1.5Z"/>
    <path class="st0" d="M253.4,127.9l3.2,3.5h-2l-2.6-3.1v3.1h-1.5v-9.5h1.5v5.5l2.6-3.1h2l-3.2,3.6Z"/>
    <path class="st0" d="M262.7,125.5v3.9c0,.3,0,.5.2.6s.3.2.6.2h.9v1.2h-1.1c-.7,0-1.2-.2-1.5-.5-.3-.3-.5-.8-.5-1.5v-3.9h-.8v-1.2h.8v-1.8h1.5v1.8h1.7v1.2h-1.7Z"/>
    <path class="st0" d="M267,131.1c-.5-.3-1-.7-1.3-1.3-.3-.6-.5-1.2-.5-1.9s.2-1.4.5-1.9c.3-.6.7-1,1.3-1.3.5-.3,1.2-.5,1.8-.5s1.3.2,1.8.5c.5.3,1,.7,1.3,1.3.3.6.5,1.2.5,1.9s-.2,1.4-.5,1.9c-.3.6-.8,1-1.3,1.3-.6.3-1.2.5-1.8.5s-1.3-.2-1.8-.5ZM269.9,130c.3-.2.6-.5.8-.8.2-.4.3-.8.3-1.3s0-1-.3-1.3c-.2-.4-.5-.6-.8-.8-.3-.2-.7-.3-1-.3s-.7,0-1,.3c-.3.2-.6.4-.8.8-.2.4-.3.8-.3,1.3,0,.8.2,1.4.6,1.8.4.4.9.6,1.5.6s.7,0,1.1-.3Z"/>
    <path class="st0" d="M283.1,126.5c-.2.4-.6.7-1,1-.5.3-1.1.4-1.8.4h-1.6v3.6h-1.5v-9h3.1c.7,0,1.3.1,1.7.4.5.2.8.6,1.1,1,.2.4.4.9.4,1.4s-.1.9-.3,1.3ZM281.5,126.2c.3-.3.4-.6.4-1.1,0-1-.5-1.5-1.6-1.5h-1.6v2.9h1.6c.6,0,1-.1,1.2-.4Z"/>
    <path class="st0" d="M286.1,131.1c-.5-.3-1-.7-1.3-1.3-.3-.6-.5-1.2-.5-1.9s.2-1.4.5-1.9c.3-.6.7-1,1.3-1.3.5-.3,1.2-.5,1.8-.5s1.3.2,1.8.5c.5.3,1,.7,1.3,1.3.3.6.5,1.2.5,1.9s-.2,1.4-.5,1.9c-.3.6-.8,1-1.3,1.3-.6.3-1.2.5-1.8.5s-1.3-.2-1.8-.5ZM288.9,130c.3-.2.6-.5.8-.8.2-.4.3-.8.3-1.3s0-1-.3-1.3c-.2-.4-.5-.6-.8-.8-.3-.2-.7-.3-1-.3s-.7,0-1,.3c-.3.2-.6.4-.8.8-.2.4-.3.8-.3,1.3,0,.8.2,1.4.6,1.8.4.4.9.6,1.5.6s.7,0,1.1-.3Z"/>
    <path class="st0" d="M302.4,124.3l-2.2,7.1h-1.5l-1.4-5.2-1.4,5.2h-1.5l-2.2-7.1h1.5l1.5,5.7,1.5-5.7h1.5l1.4,5.7,1.5-5.7h1.4Z"/>
    <path class="st0" d="M309.9,128.4h-5.4c0,.6.3,1,.6,1.4.4.3.8.5,1.4.5.8,0,1.3-.3,1.7-1h1.6c-.2.7-.6,1.2-1.2,1.6-.6.4-1.2.6-2.1.6s-1.3-.2-1.8-.5c-.5-.3-.9-.7-1.2-1.3-.3-.6-.5-1.2-.5-1.9s.1-1.4.4-1.9c.3-.6.7-1,1.2-1.3s1.1-.5,1.8-.5,1.3.1,1.8.4c.5.3.9.7,1.2,1.2.3.5.4,1.1.4,1.8s0,.5,0,.7ZM308.4,127.3c0-.5-.2-1-.6-1.3s-.8-.5-1.4-.5-.9.2-1.3.5c-.4.3-.6.8-.6,1.3h3.9Z"/>
    <path class="st0" d="M313.7,124.5c.4-.2.8-.3,1.3-.3v1.5h-.4c-.6,0-1,.1-1.3.4-.3.3-.4.8-.4,1.5v3.7h-1.5v-7.1h1.5v1c.2-.4.5-.6.8-.8Z"/>
    <path class="st0" d="M320.9,131.2c-.5-.2-.9-.5-1.1-.9-.3-.4-.4-.8-.4-1.4h1.6c0,.4.2.7.5,1,.3.2.6.4,1.1.4s.9-.1,1.2-.4c.3-.2.4-.6.4-.9s0-.5-.3-.7c-.2-.2-.4-.3-.7-.4-.3-.1-.6-.2-1.1-.3-.6-.2-1-.3-1.4-.5-.4-.2-.7-.4-.9-.7-.3-.3-.4-.8-.4-1.3s.1-1,.4-1.4c.3-.4.6-.7,1.1-.9.5-.2,1-.3,1.6-.3.9,0,1.6.2,2.1.7s.9,1,.9,1.8h-1.6c0-.3-.2-.6-.5-.8-.3-.2-.7-.3-1.1-.3s-.8.1-1,.3c-.3.2-.4.5-.4.9s0,.5.2.7c.2.2.4.3.6.4.3.1.6.2,1,.3.6.2,1.1.3,1.4.5.4.2.7.4.9.8.3.3.4.8.4,1.4s-.1.9-.4,1.3c-.2.4-.6.7-1.1,1-.5.2-1,.4-1.6.4s-1.1-.1-1.6-.3Z"/>
    <path class="st0" d="M333.6,124.3l-4.3,10.4h-1.5l1.4-3.5-2.8-7h1.6l2,5.4,2.1-5.4h1.5Z"/>
    <path class="st0" d="M335.8,131.3c-.4-.2-.8-.5-1-.8s-.4-.7-.4-1.2h1.5c0,.3.2.6.4.8.3.2.6.3,1,.3s.7,0,1-.2c.2-.2.3-.4.3-.6s-.1-.5-.4-.6c-.3-.1-.6-.3-1.2-.4-.5-.1-1-.3-1.3-.4-.3-.1-.6-.3-.9-.6-.2-.3-.4-.7-.4-1.1s.1-.7.3-1c.2-.3.5-.6,1-.7.4-.2.9-.3,1.4-.3.8,0,1.4.2,1.9.6s.8,1,.8,1.7h-1.5c0-.3-.2-.6-.4-.8-.2-.2-.5-.3-.9-.3s-.7,0-.9.2c-.2.1-.3.3-.3.6s0,.3.2.5c.1.1.3.2.5.3.2,0,.5.2.9.3.5.1.9.3,1.3.4.3.1.6.4.8.6.2.3.4.6.4,1.1,0,.4-.1.8-.3,1.1s-.5.6-.9.7c-.4.2-.9.3-1.4.3s-1-.1-1.5-.3Z"/>
    <path class="st0" d="M343.2,125.5v3.9c0,.3,0,.5.2.6s.3.2.6.2h.9v1.2h-1.1c-.7,0-1.2-.2-1.5-.5-.3-.3-.5-.8-.5-1.5v-3.9h-.8v-1.2h.8v-1.8h1.5v1.8h1.7v1.2h-1.7Z"/>
    <path class="st0" d="M352.6,128.4h-5.4c0,.6.3,1,.6,1.4.4.3.8.5,1.4.5.8,0,1.3-.3,1.7-1h1.6c-.2.7-.6,1.2-1.2,1.6-.6.4-1.2.6-2.1.6s-1.3-.2-1.8-.5c-.5-.3-.9-.7-1.2-1.3-.3-.6-.5-1.2-.5-1.9s.1-1.4.4-1.9c.3-.6.7-1,1.2-1.3s1.1-.5,1.8-.5,1.3.1,1.8.4c.5.3.9.7,1.2,1.2.3.5.4,1.1.4,1.8s0,.5,0,.7ZM351.2,127.3c0-.5-.2-1-.6-1.3s-.8-.5-1.4-.5-.9.2-1.3.5c-.4.3-.6.8-.6,1.3h3.9Z"/>
    <path class="st0" d="M364.1,124.6c.4.2.8.6,1,1,.3.5.4,1,.4,1.7v4.2h-1.4v-4c0-.6-.2-1.1-.5-1.5-.3-.3-.7-.5-1.3-.5s-1,.2-1.3.5c-.3.3-.5.8-.5,1.5v4h-1.4v-4c0-.6-.2-1.1-.5-1.5-.3-.3-.7-.5-1.3-.5s-1,.2-1.3.5c-.3.3-.5.8-.5,1.5v4h-1.5v-7.1h1.5v.8c.2-.3.5-.5.9-.7.4-.2.8-.2,1.2-.2s1.1.1,1.5.4c.4.2.8.6,1,1,.2-.4.5-.8,1-1s.9-.4,1.5-.4,1,.1,1.5.3Z"/>
  </g>
  <rect class="st2" x="25.6" y="122.2" width="191.8" height="32.2"/>
  <g>
    <path class="st1" d="M32.5,134.3c.7-1.3,1.8-2.3,3-3,1.3-.7,2.7-1.1,4.3-1.1s3.5.5,4.9,1.4c1.4,1,2.4,2.3,2.9,4h-3.8c-.4-.8-.9-1.4-1.6-1.8-.7-.4-1.5-.6-2.4-.6s-1.8.2-2.6.7-1.3,1.1-1.8,1.9c-.4.8-.6,1.8-.6,2.9s.2,2.1.6,2.9c.4.8,1,1.5,1.8,1.9s1.6.7,2.6.7,1.7-.2,2.4-.6c.7-.4,1.2-1,1.6-1.8h3.8c-.6,1.7-1.5,3-2.9,4-1.4.9-3,1.4-4.9,1.4s-3-.4-4.3-1.1c-1.3-.7-2.3-1.7-3-3-.7-1.3-1.1-2.8-1.1-4.4s.4-3.1,1.1-4.4Z"/>
    <path class="st1" d="M55,146.2c-1.3-.7-2.3-1.7-3.1-3-.8-1.3-1.1-2.8-1.1-4.4s.4-3.1,1.1-4.4,1.8-2.3,3.1-3c1.3-.7,2.7-1.1,4.3-1.1s3,.4,4.3,1.1c1.3.7,2.3,1.7,3.1,3s1.1,2.8,1.1,4.4-.4,3.1-1.1,4.4c-.8,1.3-1.8,2.3-3.1,3s-2.7,1.1-4.3,1.1-3-.4-4.3-1.1ZM61.9,143.6c.8-.5,1.4-1.1,1.8-1.9.4-.8.6-1.8.6-2.9s-.2-2.1-.6-2.9c-.4-.8-1-1.5-1.8-1.9s-1.6-.7-2.6-.7-1.9.2-2.7.7c-.8.4-1.4,1.1-1.8,1.9-.4.8-.6,1.8-.6,2.9s.2,2.1.6,2.9c.4.8,1,1.5,1.8,1.9.8.5,1.7.7,2.7.7s1.9-.2,2.6-.7Z"/>
    <path class="st1" d="M85.5,147.1h-3.3l-7.6-11.4v11.4h-3.3v-16.7h3.3l7.6,11.5v-11.5h3.3v16.7Z"/>
    <path class="st1" d="M100,130.4v2.7h-6.9v4.3h5.3v2.6h-5.3v7h-3.3v-16.7h10.3Z"/>
    <path class="st1" d="M106.7,130.4v16.7h-3.3v-16.7h3.3Z"/>
    <path class="st1" d="M121.4,131.5c1.3.7,2.4,1.7,3.1,2.9.7,1.3,1.1,2.7,1.1,4.4s-.4,3.1-1.1,4.4c-.7,1.2-1.8,2.2-3.1,2.9-1.3.7-2.9,1-4.6,1h-5.8v-16.7h5.8c1.8,0,3.3.3,4.6,1ZM120.7,142.8c1-1,1.4-2.3,1.4-4s-.5-3.1-1.4-4.1c-1-1-2.3-1.5-4.1-1.5h-2.4v11h2.4c1.8,0,3.1-.5,4.1-1.4Z"/>
    <path class="st1" d="M132.3,133.1v4.2h5.6v2.6h-5.6v4.4h6.3v2.7h-9.7v-16.7h9.7v2.7h-6.3Z"/>
    <path class="st1" d="M156.9,147.1h-3.3l-7.6-11.4v11.4h-3.3v-16.7h3.3l7.6,11.5v-11.5h3.3v16.7Z"/>
    <path class="st1" d="M172.5,130.4v2.7h-4.4v14h-3.3v-14h-4.4v-2.7h12.2Z"/>
    <path class="st1" d="M179.2,130.4v16.7h-3.3v-16.7h3.3Z"/>
    <path class="st1" d="M193.7,143.9h-6.6l-1.1,3.2h-3.5l6-16.7h3.9l6,16.7h-3.5l-1.1-3.2ZM192.8,141.3l-2.4-7-2.4,7h4.8Z"/>
    <path class="st1" d="M204.8,144.5h5.5v2.6h-8.8v-16.7h3.3v14Z"/>
  </g>
</svg>